<svg
  xmlns="http://www.w3.org/2000/svg"
  width="40"
  height="40"
  viewBox="0 0 40 40"
  fill="currentColor"
>
  <path
    d="M29.999 36.667H9.99902V33.333H29.999V36.667ZM9.99902 33.333H6.66602V30H9.99902V33.333ZM33.332 33.333H29.999V30H33.332V33.333ZM6.66602 30H3.33203V10H6.66602V30ZM26.666 30H13.332V26.667H26.666V30ZM36.666 30H33.332V13.333H36.666V30ZM13.332 26.667H9.99902V13.333H13.332V26.667ZM29.999 26.667H26.666V20H29.999V26.667ZM23.332 23.333H16.666V16.667H23.332V23.333ZM26.666 16.667H23.332V13.333H26.666V16.667ZM19.999 13.333H13.332V10H19.999V13.333ZM29.999 13.333H26.666V10H29.999V13.333ZM9.99902 10H6.66602V6.66699H9.99902V10ZM33.332 6.66699H36.666V10H29.999V3.33301H33.332V6.66699ZM26.666 6.66699H9.99902V3.33301H26.666V6.66699Z"
  />
</svg>
