<svg width="40" height="40" viewBox="0 0 40 40" fill="currentColor">
  <path d="M13.332 8.33326H16.6654V11.6666H13.332V8.33326Z" />
  <path d="M9.9987 11.6666H13.332V14.9999H9.9987V11.6666Z" />
  <path d="M6.66536 14.9999H9.9987V18.3333H6.66536V14.9999Z" />
  <path d="M3.33203 18.3333H6.66536V21.6666H3.33203V18.3333Z" />
  <path d="M6.66536 21.6666H9.9987V24.9999H6.66536V21.6666Z" />
  <path d="M9.9987 24.9999H13.332V28.3333H9.9987V24.9999Z" />
  <path d="M13.332 28.3333H16.6654V31.6666H13.332V28.3333Z" />
  <path d="M26.6654 8.33326H23.332V11.6666H26.6654V8.33326Z" />
  <path d="M29.9987 11.6666H26.6654V14.9999H29.9987V11.6666Z" />
  <path d="M33.332 14.9999H29.9987V18.3333H33.332V14.9999Z" />
  <path d="M36.6654 18.3333H33.332V21.6666H36.6654V18.3333Z" />
  <path d="M33.332 21.6666H29.9987V24.9999H33.332V21.6666Z" />
  <path d="M29.9987 24.9999H26.6654V28.3333H29.9987V24.9999Z" />
  <path d="M26.6654 28.3333H23.332V31.6666H26.6654V28.3333Z" />
</svg>
