<svg viewBox="0 0 14 14" fill="currentColor">
  <path
    fill-rule="evenodd"
    clip-rule="evenodd"
    d="M2.99992.333496h5.33333V1.66683H6.99992v1.33333H5.66658V1.66683H2.99992V.333496ZM1.66659 3.00016V1.66683h1.33333v1.33333H1.66659Zm0 6.66667H.333252V3.00016H1.66659v6.66667Zm1.33333 1.33337H1.66659V9.66683h1.33333v1.33337Zm1.33333 1.3333H2.99992v-1.3333h1.33333v1.3333Zm6.66665 0v1.3333H4.33325v-1.3333h6.66665Zm1.3334-1.3333v1.3333h-1.3334v-1.3333h1.3334Zm-1.3334-2.6667h1.3334v2.6667h1.3333V5.66683h-1.3333v1.33333h-1.3334V8.3335Zm-3.99998 0v1.33333h3.99998V8.3335H6.99992ZM5.66658 7.00016h1.33334V8.3335H5.66658V7.00016Zm0 0v-4H4.33325v4h1.33333Z"
  />
</svg>
