<svg viewBox="0 0 14 14" fill="currentColor">
  <path
    d="M10.501 12.833H4.66797V11.667H10.501V12.833ZM4.66797 11.667H3.50098V10.5H4.66797V11.667ZM11.668 11.667H10.501V10.5H11.668V11.667ZM3.50098 10.5H2.33398V9.33301H3.50098V10.5ZM12.834 10.5H11.668V8.16699H10.501V7H11.668V5.83301H12.834V10.5ZM2.33398 9.33301H1.16797V3.5H2.33398V9.33301ZM10.501 9.33301H7.00098V8.16699H10.501V9.33301ZM7.00098 8.16699H5.83398V7H7.00098V8.16699ZM5.83398 7H4.66797V3.5H5.83398V7ZM3.50098 3.5H2.33398V2.33301H3.50098V3.5ZM8.16797 2.33301H7.00098V3.5H5.83398V2.33301H3.50098V1.16699H8.16797V2.33301Z"
  />
</svg>
