<svg
  xmlns="http://www.w3.org/2000/svg"
  width="40"
  height="40"
  viewBox="0 0 40 40"
  fill="currentColor"
>
  <path
    d="M36.666 36.667H33.332V33.333H36.666V36.667ZM33.332 33.333H29.999V30H33.332V33.333ZM23.332 30H9.99902V26.667H23.332V30ZM29.999 30H26.666V26.667H29.999V30ZM9.99902 26.667H6.66602V23.333H9.99902V26.667ZM26.666 26.667H23.332V23.333H26.666V26.667ZM6.66602 23.333H3.33203V10H6.66602V23.333ZM29.999 23.333H26.666V10H29.999V23.333ZM9.99902 10H6.66602V6.66699H9.99902V10ZM26.666 10H23.332V6.66699H26.666V10ZM23.332 6.66699H9.99902V3.33301H23.332V6.66699Z"
  />
</svg>
