<svg viewBox="0 0 14 14" fill="currentColor">
  <path
    fill-rule="evenodd"
    clip-rule="evenodd"
    d="M7.58333 0H6.41667V2.33333H7.58333V0ZM0 6.41667V7.58333H2.33333V6.41667H0ZM11.6667 6.41667H14V7.58333H11.6667V6.41667ZM7.58333 14H6.41667V11.6667H7.58333V14ZM4.66667 3.5H9.33333V4.66667H4.66667V3.5ZM4.66667 9.33333H3.5V4.66667H4.66667V9.33333ZM4.66667 9.33333V10.5H9.33333V9.33333H10.5V4.66667H9.33333V9.33333H4.66667ZM11.6667 1.16667H12.8333V2.33333H11.6667V1.16667ZM11.6667 2.33333V3.5H10.5V2.33333H11.6667ZM12.8333 12.8333H11.6667V11.6667H12.8333V12.8333ZM11.6667 11.6667H10.5V10.5H11.6667V11.6667ZM2.33333 1.16667H1.16667V2.33333H2.33333V3.5H3.5V2.33333H2.33333V1.16667ZM1.16667 12.8333H2.33333V11.6667H3.5V10.5H2.33333V11.6667H1.16667V12.8333Z"
  />
</svg>
