<svg viewBox="0 0 16 16" fill="currentColor">
  <path
    fill-rule="evenodd"
    clip-rule="evenodd"
    d="M8.66667 0H7.33333V2.66667H8.66667V0ZM0 7.33333V8.66667H2.66667V7.33333H0ZM13.3333 7.33333H16V8.66667H13.3333V7.33333ZM8.66667 16H7.33333V13.3333H8.66667V16ZM5.33333 4H10.6667V5.33333H5.33333V4ZM5.33333 10.6667H4V5.33333H5.33333V10.6667ZM5.33333 10.6667V12H10.6667V10.6667H12V5.33333H10.6667V10.6667H5.33333ZM13.3333 1.33333H14.6667V2.66667H13.3333V1.33333ZM13.3333 2.66667V4H12V2.66667H13.3333ZM14.6667 14.6667H13.3333V13.3333H14.6667V14.6667ZM13.3333 13.3333H12V12H13.3333V13.3333ZM2.66667 1.33333H1.33333V2.66667H2.66667V4H4V2.66667H2.66667V1.33333ZM1.33333 14.6667H2.66667V13.3333H4V12H2.66667V13.3333H1.33333V14.6667Z"
  />
</svg>
