<svg
  xmlns="http://www.w3.org/2000/svg"
  width="40"
  height="40"
  viewBox="0 0 40 40"
  fill="currentColor"
>
  <path
    d="M6.66602 21.667H19.999V31.667H23.332V35H19.999V38.333H16.666V25H3.33203V18.333H6.66602V21.667ZM26.666 31.667H23.332V28.333H26.666V31.667ZM29.999 28.333H26.666V25H29.999V28.333ZM33.332 25H29.999V21.667H33.332V25ZM23.332 15H36.666V21.667H33.332V18.333H19.999V8.33301H16.666V5H19.999V1.66699H23.332V15ZM9.99902 18.333H6.66602V15H9.99902V18.333ZM13.332 15H9.99902V11.667H13.332V15ZM16.666 11.667H13.332V8.33301H16.666V11.667Z"
  />
</svg>
