<svg
  xmlns="http://www.w3.org/2000/svg"
  width="48"
  height="48"
  fill="#6d7557"
  viewBox="0 0 48 48"
>
  <path
    d="M45.713 22.868h-2.28v2.28h2.28zM43.433 25.148h-2.295v2.28h2.294zM43.433 20.573h-2.295v2.294h2.294zM41.137 27.428h-2.28v2.294h2.28zM41.137 18.293h-2.28v2.28h2.28zM36.578 36.578h-6.87v2.28h9.15v-9.135h-2.28zM22.853 25.148h-2.28v-2.28h-2.296v-2.295h-2.28v2.295h-2.28v2.28h2.28v2.28h2.28v2.295h2.296v2.28h2.28v-2.28h2.294v-2.295h2.28v-2.28h2.28v-2.28h2.295v-2.295h2.28v-2.28h-2.28v-2.295h-2.295v2.295h-2.28v2.28h-2.28v2.295h-2.294z"
  />
  <path
    d="M36.578 11.438v6.855h2.28v-9.15h-9.15v2.295zM29.708 38.858h-2.28v2.295h2.28zM29.708 6.863h-2.28v2.28h2.28zM27.428 41.153h-2.28v2.28h2.28zM27.428 4.583h-2.28v2.28h2.28zM25.147 43.433h-2.295v2.28h2.295zM25.147 2.288h-2.295v2.295h2.295zM22.853 41.153h-2.28v2.28h2.28zM22.853 4.583h-2.28v2.28h2.28zM20.573 38.858h-2.296v2.295h2.296zM20.573 6.863h-2.296v2.28h2.296z"
  />
  <path
    d="M11.423 36.578v-6.855h-2.28v9.135h9.135v-2.28zM11.423 11.438h6.855V9.143H9.142v9.15h2.28zM9.142 27.428h-2.28v2.294h2.28zM9.142 18.293h-2.28v2.28h2.28zM6.863 25.148H4.567v2.28h2.295zM6.863 20.573H4.567v2.294h2.295zM4.567 22.868h-2.28v2.28h2.28z"
  />
</svg>
