<svg
  xmlns="http://www.w3.org/2000/svg"
  width="48"
  height="48"
  fill="#6d7557"
  viewBox="0 0 48 48"
>
  <path
    d="M45.72 11.438H2.295V4.583H0v38.85h2.295V13.717H45.72v29.714H48V4.582h-2.28zM45.72 43.433H2.295v2.28H45.72z"
  />
  <path
    d="M41.145 29.723h-2.28v6.855h2.28zM38.865 36.578H36.57v2.28h2.295zM38.865 27.428H36.57v2.294h2.295zM36.57 38.858h-6.855v2.295h6.855zM36.57 27.428v-2.28h-2.28v-9.135H6.855v13.71h4.575v-2.295H9.15v-9.135h22.86v6.855h-2.295v2.28zM29.715 36.578h-2.28v2.28h2.28z"
  />
  <path
    d="M29.715 27.428h-2.28v2.294h2.28zM27.435 29.723H25.14v6.855h2.295zM16.005 6.863H13.71v2.28h2.295zM9.15 32.003v2.295H6.855v2.28H22.86v-6.855h-2.28v-2.295h-2.295v-2.28h-2.28v2.28H13.71v2.295h-2.28v2.28zM11.43 6.863H9.15v2.28h2.28zM6.855 6.863h-2.28v2.28h2.28zM45.72 2.288H2.295v2.295H45.72z"
  />
</svg>
