<svg
  xmlns="http://www.w3.org/2000/svg"
  width="48"
  height="48"
  fill="#6d7557"
  viewBox="0 0 48 48"
>
  <g clip-path="url(#a)">
    <path
      d="M43.428 6.863h-2.28v38.85h2.28zM41.148 4.568h-2.295v2.295h2.295zM38.853 2.288h-2.28v2.28h2.28zM38.85 11.423h-2.28V9.15h-2.28V6.862h-2.295V4.569H4.578V48H38.85zm-2.28 34.29H6.858V6.862h20.565v9.135h9.15zM36.573-.007H6.858v2.295h29.715z"
    />
    <path
      d="M31.998 38.858H11.433v2.28h20.565zM31.998 29.708H11.433v2.294h20.565zM31.998 20.573H11.433v2.28h20.565zM20.568 11.423h-9.135v2.295h9.135z"
    />
  </g>
  <defs>
    <clipPath id="a">
      <path fill="#fff" d="M0 0h48v48H0z" />
    </clipPath>
  </defs>
</svg>
