<svg
  xmlns="http://www.w3.org/2000/svg"
  width="48"
  height="44"
  fill="#6d7557"
  viewBox="0 0 48 44"
>
  <path
    d="M48 4.575h-2.28V38.85H48zM45.72 38.85H29.715v2.295H45.72zM38.865 4.575h-2.28v2.28h2.28zM38.865 18.285H34.29v2.28h4.575zM38.865 27.42h-11.43v2.295h11.43zM38.865 22.86h-11.43v2.28h11.43zM32.01 18.285h-4.575v2.28h4.575zM36.585 13.71h-9.15v2.295h9.15zM38.865 9.135h-11.43v2.295h11.43zM34.29 4.575h-6.855v2.28h6.855zM41.145 0h-15.99v2.28h15.99zM29.715 41.145H18.3v2.28h11.415zM20.58 18.285H18.3v2.28h2.28zM20.58 13.71H18.3v2.295h2.28zM20.58 9.135H18.3v2.295h2.28zM20.58 4.575H18.3v2.28h2.28zM18.3 38.85H2.295v2.295H18.3zM20.58 27.42h-6.855v2.295h6.855zM20.58 22.86h-9.15v2.28h9.15zM11.43 27.42H9.15v2.295h2.28z"
  />
  <path
    d="M9.15 20.565h2.28v-2.28h2.295v2.28h2.28V2.28h6.855V0H6.87v2.28h2.28z"
  />
  <path
    d="M4.575 36.57H20.58v2.28h6.855v-2.28H43.44V4.575h2.28V2.28h-4.575v32.01h-15.99V2.28H22.86v32.01H6.87V2.28H2.295v2.295h2.28zM2.295 4.575H0V38.85h2.295z"
  />
</svg>
