<svg
  xmlns="http://www.w3.org/2000/svg"
  width="48"
  height="48"
  fill="#6d7557"
  viewBox="0 0 48 48"
>
  <path
    d="M19.432 0v2.28h-4.575v2.295h4.575v2.28h2.28v-2.28h4.575v2.28h2.28v-2.28h4.575v2.28h2.295v-2.28h2.28V9.15h2.28V6.855h2.295V45.72h-25.14V48h27.42v-2.28h2.28V6.855h-2.28v-2.28h-2.28V2.28h-6.855V0h-2.295v2.28h-4.575V0h-2.28v2.28h-4.575V0z"
  />
  <path
    d="M37.718 9.15h-2.28v4.56h2.28zM33.143 18.285h6.855v-2.28h-4.56V13.71h-2.296zM30.863 22.86h-2.296v4.575h2.296V25.14h9.135v-2.28h-6.855v-4.575h-2.28zM26.288 31.995h13.71v-2.28h-11.43v-2.28h-2.28zM39.998 36.57H19.433v2.295h20.565z"
  />
  <path
    d="M17.153 34.29h9.135v-2.295H3.428v2.295h11.43v11.43h2.294zM14.858 4.575h-2.28V9.15h2.28zM12.578 9.15h-2.295v4.56h2.295zM10.282 13.71h-2.28v4.575h2.28zM8.002 18.285h-2.28v4.575h2.28zM5.722 22.86H3.427v4.575h2.295zM3.427 27.435h-2.28v4.56h2.28z"
  />
</svg>
