<?xml version="1.0" encoding="UTF-8"?>
<svg id="Layer_1" data-name="Layer 1" xmlns="http://www.w3.org/2000/svg" viewBox="0 0 3113.77 1800.012">
  <defs>
    <style>
      .cls-1 {
        fill: #ff385c;
      }
    </style>
  </defs>
  <path class="cls-1" d="M1421.092,823.001l-3.471,30.803c-20.269-24.911-47.992-37.31-80.695-37.31-64.643,0-113.233,51.193-113.233,120.174s48.59,120.173,113.233,120.173c32.703,0,60.426-12.399,80.695-37.309l3.471,30.801h49.458v-227.332h-49.458ZM1347.773,1009.553c-41.089,0-70.716-29.757-70.716-72.886s29.627-72.886,70.716-72.886,70.283,30.191,70.283,72.886-28.76,72.886-70.283,72.886Z"/>
  <rect class="cls-1" x="1507.427" y="823.001" width="52.495" height="227.332"/>
  <path class="cls-1" d="M2414.158,816.493c-32.72,0-61.063,12.911-81.129,37.31v-127.984h-52.495v324.513h49.458l3.471-30.801c20.269,24.91,47.992,37.309,80.695,37.309,64.643,0,113.233-51.192,113.233-120.173s-48.591-120.174-113.233-120.174ZM2403.312,1009.553c-41.523,0-70.283-30.191-70.283-72.886s28.76-72.886,70.283-72.886,70.717,29.757,70.717,72.886-29.627,72.886-70.717,72.886Z"/>
  <path class="cls-1" d="M2159.059,816.493c-33.992,0-57.688,15.74-71.15,37.31l-3.471-30.803h-49.458v227.332h52.495v-131.453c0-32.104,23.861-55.098,56.833-55.098,31.237,0,49.024,21.258,49.024,57.701v128.85h52.495v-135.357c0-60.738-33.406-98.482-86.769-98.482Z"/>
  <path class="cls-1" d="M1649.727,855.539l-3.471-32.538h-49.458v227.332h52.495v-114.533c0-39.914,24.295-65.51,64.643-65.51,8.677,0,17.354.868,24.295,3.037v-50.326c-6.508-2.603-14.751-3.471-23.861-3.471-27.519,0-50.842,14.369-64.643,36.009Z"/>
  <path class="cls-1" d="M1895.716,816.493c-32.72,0-61.063,12.911-81.129,37.31v-127.984h-52.495v324.513h49.458l3.471-30.801c20.269,24.91,47.992,37.309,80.695,37.309,64.643,0,113.233-51.192,113.233-120.173s-48.59-120.174-113.233-120.174ZM1884.87,1009.553c-41.523,0-70.282-30.191-70.282-72.886s28.759-72.886,70.282-72.886,70.716,29.757,70.716,72.886-29.627,72.886-70.716,72.886Z"/>
  <circle class="cls-1" cx="1533.674" cy="759.876" r="34.057"/>
  <path class="cls-1" d="M1113.931,970.505c-40.781-88.938-85.467-179.177-131.021-268.115-8.243-16.486-23.861-48.157-37.744-65.076-19.957-24.295-49.458-37.31-79.393-37.31s-59.436,13.015-79.393,37.31c-13.883,16.92-29.501,48.59-37.744,65.076-45.554,88.938-90.239,179.177-131.021,268.115-5.206,11.714-17.788,39.48-22.56,52.061-5.64,15.185-8.677,31.671-8.677,48.157,0,71.584,55.966,129.285,130.587,129.285,61.606,0,110.63-39.48,148.808-80.695,38.178,41.215,87.202,80.695,148.808,80.695,74.621,0,131.021-57.701,131.021-129.285,0-16.486-3.471-32.972-9.111-48.157-4.772-12.581-17.354-40.347-22.56-52.061ZM865.773,1050.333c-30.803-39.914-59.436-89.372-59.436-129.285,0-38.612,28.2-59.87,59.436-59.87s59.87,21.258,59.87,59.87c0,39.914-29.067,89.372-59.87,129.285ZM1014.581,1155.323c-45.621,0-84.757-31.905-119.415-70.241,35.734-44.575,75.163-107.674,75.163-164.034,0-66.378-51.627-104.556-104.556-104.556s-104.122,38.178-104.122,104.556c0,56.346,39.151,119.428,74.76,164.001-34.666,38.351-73.811,70.275-119.446,70.275-49.458,0-85.901-37.744-85.901-84.599,0-11.28,1.735-21.692,5.64-32.538,3.905-9.978,16.486-37.744,21.692-48.59,40.781-88.938,84.599-178.309,130.153-267.247,8.243-16.486,22.126-43.818,32.538-56.4,11.28-13.883,26.898-21.258,44.686-21.258s33.406,7.375,44.686,21.258c10.412,12.581,24.295,39.914,32.538,56.4,45.554,88.938,89.372,178.309,130.153,267.247,5.206,10.846,17.788,38.612,21.692,48.59,3.905,10.846,6.074,21.258,6.074,32.538,0,46.855-36.877,84.599-86.335,84.599Z"/>
</svg>