<?xml version="1.0" encoding="UTF-8"?>
<svg id="uuid-047778aa-0e40-4092-87ed-a01038d86620"
    xmlns="http://www.w3.org/2000/svg" viewBox="0 0 144.25 99.3">
    <path
        d="M36.8,81.38c1.4.01,2.55-1.12,2.56-2.52h0c.09-1.41-.98-2.62-2.39-2.7-1.41-.09-2.62.98-2.7,2.39,0,.11,0,.21,0,.32,0,1.39,1.11,2.51,2.5,2.52.01,0,.02,0,.03,0Z" />
    <path
        d="M64.77,83.08h-4.58l-2.3,10.88c-.08.33-.13.66-.16,1-.63.63-1.44,1.04-2.31,1.19-1.24,0-1.6-.48-1.6-1.19.03-.34.08-.67.16-1l3.68-17.28-4.73.64-3.55,16.64c0,.14-.05.27-.07.41-1,.89-2.13,1.8-3,1.8-1.25,0-1.6-.48-1.6-1.19.03-.34.08-.67.16-1l3.64-17.3-4.73.64-3.56,16.64c0,.26-.09.5-.12.73-.71.76-1.64,1.28-2.66,1.48-1.28,0-1.6-.52-1.6-1.22.01-.34.06-.67.13-1l2.3-10.87h-4.61l-2.3,10.88c-.09.44-.15.88-.17,1.33-.53.48-1.2.78-1.91.88-1.25,0-1.6-.48-1.6-1.19.01-.34.07-.67.16-1l1.31-6.11c.05-.25.07-.51.06-.77-.04-2.07-1.61-3.78-3.67-4-1.52.14-2.97.73-4.16,1.7l1.72-8.12-4.73.64-3.54,16.58c-1.37,1.65-3.43,2.57-5.58,2.49-3.46,0-4.23-1.79-4.23-6-.02-5.68,2.53-13.81,6.47-13.81,1.16-.06,2.15.83,2.21,1.99,0,.1,0,.19,0,.29,0,.8-.6,2.4-1.4,2.62.45.54,1.12.84,1.82.83,1.63,0,2.24-1.25,2.24-2.94,0-3.11-2.59-4.29-5.57-4.29-8.51,0-10.78,9.06-10.78,16,0,6.56,3.74,8.16,7,8.16,2.71.13,5.34-.88,7.27-2.79l-.54,2.63h4.61l2.75-12.93c.57-.44,1.28-.68,2-.67.87,0,1.47.73,1.47,1.89,0,.28-.03.56-.09.83l-1.22,5.76c-.14.53-.23,1.08-.25,1.63,0,2.4,1.47,3.49,4,3.49,1.28,0,2.86-1.13,4.29-2.42.41,1.65,1.81,2.42,3.87,2.42,1.47,0,3.32-1.48,4.9-3,.21,2,1.65,3,3.93,3,1.56,0,3.56-1.67,5.2-3.28.1,2.28,1.58,3.28,3.96,3.28,1.38,0,3.1-1.3,4.61-2.71.15,1.64,1.6,2.85,3.24,2.71,1.09,0,2.43-.19,3.33-2.95-.27.08-.55.11-.83.1-.9,0-1.16-.51-1.16-1.18.01-.37.06-.73.16-1.09l2.27-10.88Z" />
    <path
        d="M63.14,76.3c-1.4,0-2.54,1.15-2.53,2.55,0,0,0,0,0,.01,0,1.4,1.14,2.54,2.54,2.54s2.54-1.14,2.54-2.54c0-1.41-1.14-2.55-2.55-2.56Z" />
    <path
        d="M94.37,85.13c.04-1.1-.82-2.03-1.92-2.07-.13,0-.26,0-.39.02-1.4.1-2.72.67-3.77,1.6l.35-1.6h-4.64l-2.15,10.28h-.09c-1.31,2.02-3.59,3.2-6,3.07-3.45,0-4.22-1.79-4.22-6,.01-5.72,2.54-13.85,6.46-13.85,1.16-.07,2.15.82,2.21,1.98,0,.1,0,.2,0,.3,0,.8-.61,2.4-1.41,2.62.45.54,1.13.84,1.83.83,1.63,0,2.24-1.25,2.24-2.94.01-3.11-2.58-4.29-5.56-4.29-8.51,0-10.78,9.06-10.78,16,0,6.56,3.74,8.16,7,8.16,2.46,0,5.75-.64,7.79-3.42l-.68,3.26h4.61l2.65-12.54c.56-.64,1.36-1,2.21-1,1,0,.06,2.11,1.86,2.11,1.35-.03,2.43-1.15,2.4-2.5,0,0,0-.01,0-.02Z" />
    <path
        d="M143.39,96.23c-.93,0-1.19-.45-1.19-1,0-.71,1.38-6.34,1.54-7.39.03-.25.05-.49.06-.74-.04-2.07-1.62-3.79-3.68-4-1.72.19-3.34.9-4.63,2.05-.62-1.18-1.81-1.96-3.14-2.07-1.52.14-2.96.73-4.13,1.7l.35-1.7h-4.57l-2.65,12.47c-.45.35-.98.57-1.55.62-1.28,0-1.6-.52-1.6-1.22.02-.34.06-.67.13-1l2.28-10.87h-4.61l-.19.83c-.61-.5-1.36-.78-2.15-.8-5.75,0-7.93,5.33-8.31,10.41-1.3,1.88-3.46,3.25-4.81,3.25-1.36.1-2.53-.92-2.63-2.28-.01-.16,0-.32.01-.47,0-.46.03-.92.08-1.37,3-.39,7.24-2.63,7.24-6.53,0-2.24-1.48-3.33-4.1-3.33-5.82,0-7.55,7.14-7.55,11.2,0,2.75,1.66,5.09,4.73,5.09,2.74-.1,5.31-1.41,7-3.57-.08,2,1.47,3.69,3.48,3.78.17,0,.35,0,.52-.02,1.79-.12,3.41-1.1,4.35-2.62.41,1.66,1.82,2.43,3.9,2.43,1.29-.19,2.49-.78,3.43-1.68l-.43,1.68h4.61l2.75-12.93c.57-.45,1.28-.68,2-.67.86,0,1.47.73,1.47,1.89,0,.28-.03.56-.1.83l-2.3,10.88h4.64l2.36-11.23c.03-.23.05-.45.06-.68,0-.39-.06-.77-.16-1.15.53-.35,1.15-.54,1.79-.54.86,0,1.47.73,1.47,1.89,0,.28-.03.56-.09.83l-1.22,5.76c-.12.53-.19,1.08-.19,1.63,0,2.4,1.18,3.49,3.26,3.49,1.09,0,2.43-.19,3.33-2.95-.28.08-.57.12-.86.1ZM102.21,84.49c1,0,1.12,1.12,1.12,1.79-.19,2.67-2.39,4.75-5.06,4.8.67-3,2.14-6.59,3.94-6.59ZM113.69,93.96c-.09.35-.15.7-.19,1.05-.61.9-1.31,1.6-2,1.6s-1.85-.35-1.85-2.27c0-4.35,1.92-9.44,4.32-9.44.58,0,1.13.2,1.57.58l-1.85,8.48Z" />
    <path id="uuid-aebbcefb-5655-48ee-add5-f62ed8d7d0c1"
        d="M72.12,0c-17.82,0-32.27,14.45-32.27,32.27,0,16.37,12.2,29.9,28,31.99-1.99-3.09-3.27-6.6-4.41-10.07-1.39-4.26-2.22-8.68-2.99-13.08-.07-.39-.25-1.87-.73-2-.53-.15-1.11,1.09-1.45,1.37-.58.47-1.22.85-1.87,1.22-.44.26-.91.61-1.4.81-.6.38-1.35.53-2.07.56-1.21.06-2.56.03-3.67-.49-1.15-.55-1.96-1.69-2.79-2.61-.53-.58-1.06-1.16-1.58-1.74-.41-.45-.94-1.23-1.64-1.01-.31.1-.55,0-.72-.17-.33-.26-.48-.76-.11-1.15,2.06-2.12,5.21-2.96,8.02-1.95,1.52.55,2.49,1.53,3.66,2.57,1.05.94,2.58,1.21,3.9.76.44-.15,1.36-.5,1.53-.96.24-.64-.16-2.02-.19-2.72-.08-2.15.03-4.3.35-6.43,0,0,1.93-.24,2.27-.24,0,.02,0,.03,0,.05.34,1.08.34,2.29.86,3.32.21.4.49.87.91,1.09.97.52,5.27.64,6.22.15,1.4-.72,2.43-4.46,2.43-4.57.27,0,2.49,0,2.76,0,0,.11,1.04,3.86,2.43,4.57.95.49,5.25.36,6.22-.15.42-.22.7-.69.91-1.09.53-1.02.52-2.23.86-3.32,0-.01,0-.03,0-.05.4,0,1.94.22,2.42.29.03,1.99-.15,3.99-.54,5.94-.17.86-.36,1.72-.64,2.55-.24.73-.58,1.22-.42,2.03.09.45.34.88.75,1.08,1.03.52,2.65-.25,3.29-1.06.9-1.14,1.69-2.22,2.88-3.1,2.05-1.52,5.61-2.88,8.02-1.44.6.36.42,1.18-.18,1.4-.79.29-.83,1.44-.86,2.13-.04.91-.09,1.82-.54,2.63-.88,1.61-2.7,2.31-4.4,2.69-1.87.42-3.88.76-5.73.07-.45-.17-.88-.35-1.36-.45-.49-.09-.98-.12-1.46-.27-.61-.2-1.17-.53-1.65-.96-.16.43-.33.86-.49,1.29-1.07,2.83-2.07,5.69-2.93,8.58-1.02,3.43-1.83,6.94-2.28,10.49-.12.96-.22,1.93-.28,2.91,14.42-3.22,25.2-16.1,25.2-31.49,0-17.82-14.45-32.26-32.27-32.26ZM89.08,22.77c-.31.35-.84.45-1.4.45.08.53.2,1.77.2,1.77,0,0-4.69-.17-6.41-.2-2.23-.03-4.46.01-6.68.13-.23,0-1.59.02-2.05,0-2.23-.11-4.45-.15-6.68-.13-1.58.02-5.99.2-5.99.2,0,0,.41-1.76.64-2.54-.34,0-.68-.02-1.02-.05-.32-.03-.67-.21-.74-.56-.39-2.01.94-3.84,2.02-5.42,1-1.48,2.26-2.77,3.71-3.8-.52-1.22-.16-2.56.66-3.57.7-.88,1.79-1.43,2.52-1.69.25-.09.51-.17.77-.24.96-.25,1.96-.37,2.86-.8-.07-.1-1.22-.87-1.56-1.33-.76-1,.3-1.94,1.22-2.22.52-.15,1.1-.26,1.59.01.53.29,1.17,1.7,1.22,1.79.73-.99,1.72-2.65,3.06-2.35,1.24.28,2.31,1.93,2.77,3.02.35.84.5,1.74.39,2.62,1.41.31,3.43,1.06,4.3,2.57.26.51.34.91.34,1.44s-.22,1.42-.5,2.03c1.73.65,3.23,1.85,4.12,3.49.47.86.77,1.81.89,2.79.09.73.25,1.98-.27,2.59Z" />
</svg>