<svg xmlns="http://www.w3.org/2000/svg" role="img" viewBox="-4.13 85.62 410.02 121.52"><title>Netflix-01.svg</title><path fill="#e50914" d="M308.41617 189.681q8.31793.63657 16.61255 1.37195V93.51929h-16.61255zM41.17771 153.49366L19.54154 93.51929H3.75345v105.9801q8.2902-1.18 16.61224-2.26275v-57.63172l19.23841 55.26551q9.07626-1.05268 18.186-1.99115v-99.36H41.17771zm32.58691 37.84118q22.96646-2.08713 46.14441-3.4281v-16.3703q-14.80875.8562-29.53223 2.01819v-24.78119c6.44043-.06433 14.9209-.26062 22.434-.16748v-16.36951c-6.00219-.0144-15.649.08387-22.434.17078v-22.37158h29.5322V93.52021H73.76462zm56.7937-81.30029h17.3866v76.54273q8.29184-.31275 16.61218-.5257v-76.017h17.3859V93.51929h-51.38468zm62.035 75.56976l16.61261-.00366v-37.79181h22.51867v-16.36828H209.206v-21.40491h29.76239V93.52021h-46.375zm205.65319-92.085H380l-12.02911 27.88013-10.80783-27.88015h-17.97254l19.31391 49.81812-21.08515 48.8731q8.74989.85345 17.46112 1.81745l12.26246-28.41644 12.14428 31.325q9.48853 1.22012 18.93372 2.56079l.02569-.01074-21.64055-55.8128zM266.2283 93.51h-16.61163v92.90613q22.646.77938 45.10388 2.27936v-16.36834q-14.20605-.94756-28.49225-1.61041z" data-name="Netflix_Logo_RGB"/></svg>