<?xml version="1.0" encoding="UTF-8" standalone="no"?>
<!-- Created with Inkscape (http://www.inkscape.org/) -->

<svg
   width="158.04114mm"
   height="37.740067mm"
   viewBox="0 0 158.04114 37.740067"
   version="1.1"
   id="svg1"
   xml:space="preserve"
   sodipodi:docname="Logo with text horizontal, graded.svg"
   inkscape:version="1.4.2 (f4327f4, 2025-05-13)"
   inkscape:export-filename="Logo with text horizontal, graded.png"
   inkscape:export-xdpi="321.43527"
   inkscape:export-ydpi="321.43527"
   xmlns:inkscape="http://www.inkscape.org/namespaces/inkscape"
   xmlns:sodipodi="http://sodipodi.sourceforge.net/DTD/sodipodi-0.dtd"
   xmlns:xlink="http://www.w3.org/1999/xlink"
   xmlns="http://www.w3.org/2000/svg"
   xmlns:svg="http://www.w3.org/2000/svg"><sodipodi:namedview
     id="namedview1"
     pagecolor="#ffffff"
     bordercolor="#000000"
     borderopacity="0.25"
     inkscape:showpageshadow="2"
     inkscape:pageopacity="0.0"
     inkscape:pagecheckerboard="0"
     inkscape:deskcolor="#d1d1d1"
     inkscape:document-units="mm"
     showguides="true"
     inkscape:zoom="1.5465208"
     inkscape:cx="181.37487"
     inkscape:cy="-9.6991908"
     inkscape:window-width="1920"
     inkscape:window-height="1112"
     inkscape:window-x="-8"
     inkscape:window-y="-8"
     inkscape:window-maximized="1"
     inkscape:current-layer="layer1"
     inkscape:export-bgcolor="#ffffff10"><sodipodi:guide
       position="57.348307,279.79926"
       orientation="0,-1"
       id="guide1"
       inkscape:locked="false" /><sodipodi:guide
       position="58.374805,266.79696"
       orientation="0,-1"
       id="guide2"
       inkscape:locked="false" /></sodipodi:namedview><defs
     id="defs1"><linearGradient
       id="linearGradient6"
       inkscape:collect="always"><stop
         style="stop-color:#ff2bbd;stop-opacity:1;"
         offset="0.30000001"
         id="stop6" /><stop
         style="stop-color:#6700b4;stop-opacity:1;"
         offset="0.79000002"
         id="stop7" /></linearGradient><linearGradient
       inkscape:collect="always"
       xlink:href="#linearGradient6"
       id="linearGradient7"
       x1="93.954811"
       y1="76.024574"
       x2="93.954811"
       y2="234.06572"
       gradientUnits="userSpaceOnUse"
       spreadMethod="pad" /></defs><g
     inkscape:label="Layer 1"
     inkscape:groupmode="layer"
     id="layer1"
     transform="translate(-14.934237,-136.17511)"><g
       id="g4"
       style="fill:url(#linearGradient7);fill-opacity:1"><path
         id="path1"
         d="m 29.421577,140.51151 c -1.940644,0.58551 -3.743537,1.55516 -5.303008,2.84937 -0.65371,-1.11413 -1.693177,-1.949 -2.922153,-2.34715 1.939835,-1.74467 4.220678,-3.06853 6.69723,-3.88668 2.476822,-0.81815 5.096517,-1.11414 7.694376,-0.86775 2.596781,0.24558 5.114577,1.02787 7.394339,2.29674 0.576075,0.32106 1.13517,0.6707 1.672152,1.04891 0.01884,-0.008 0.03693,-0.0159 0.05577,-0.0232 0.698189,-0.28871 1.465927,-0.36446 2.207257,-0.217 0.74132,0.14745 1.42145,0.51084 1.9552,1.04566 0.53509,0.53376 0.89821,1.21523 1.04567,1.95548 0.14745,0.74132 0.0717,1.50879 -0.21674,2.20698 -0.28979,0.69819 -0.77933,1.29529 -1.40797,1.71447 -0.62756,0.41999 -1.36673,0.6432 -2.121801,0.6432 -0.502214,0 -0.999302,-0.0989 -1.462694,-0.2906 -0.463391,-0.19167 -0.884463,-0.47283 -1.239488,-0.82759 -0.354755,-0.35475 -0.635919,-0.77609 -0.827582,-1.23948 -0.191671,-0.46313 -0.290601,-0.96022 -0.290601,-1.46162 0,-0.19571 0.0159,-0.39061 0.0453,-0.58335 -0.400044,-0.2747 -0.814106,-0.53052 -1.240566,-0.76639 -1.773245,-0.98151 -3.724401,-1.59856 -5.739986,-1.81341 -2.016394,-0.21485 -4.054083,-0.0232 -5.994728,0.5634 z m -6.020067,5.50303 c 0,0.71922 -0.203257,1.42253 -0.584431,2.03015 l 0.782565,1.3554 c -0.759382,0.90333 -1.801814,1.52362 -2.956928,1.76165 l -0.775018,-1.33842 c -0.342355,0.0253 -0.689833,0.004 -1.030841,-0.0631 -0.740512,-0.14745 -1.421719,-0.51084 -1.95547,-1.04459 -0.534021,-0.5351 -0.898212,-1.21523 -1.045667,-1.95547 -0.147455,-0.74132 -0.07171,-1.50906 0.216735,-2.20725 0.28979,-0.69819 0.779331,-1.29421 1.406893,-1.7142 0.628641,-0.42026 1.366996,-0.64347 2.121797,-0.64347 0.50248,-0.001 0.998222,0.0979 1.462694,0.28952 0.463392,0.19274 0.884463,0.47391 1.239488,0.82866 0.353678,0.35503 0.63592,0.77502 0.827585,1.23949 0.191664,0.46339 0.290598,0.95941 0.290598,1.46162 z m -2.758794,5.1472 6.585359,11.39047 1.986202,3.43892 1.985932,-3.43892 2.475473,-4.28807 2.469544,4.27216 1.984853,3.43919 1.984853,-3.43919 3.331906,-5.77152 h 5.439672 c 0.0644,-0.57068 0.097,-1.1446 0.097,-1.7196 0,-0.57391 -0.0326,-1.14783 -0.0981,-1.71959 H 41.4606 l -0.345318,0.59818 -2.986311,5.17119 -2.469274,-4.27298 -1.985931,-3.43919 -1.982967,3.44027 -2.476552,4.2878 -5.613824,-9.71077 c -0.760191,0.90333 -1.801545,1.52362 -2.957737,1.76165 z m 28.340844,3.88344 c 0,0.575 -0.0326,1.14892 -0.097,1.7196 h 3.65189 v -3.43919 h -3.65189 c 0.0653,0.57068 0.0979,1.1446 0.097,1.71959 z m 3.55699,-1.71959 h 0.0547 c 0.0515,0.56664 0.079,1.14056 0.079,1.71959 0,10.42056 -8.446205,18.87 -18.868911,18.87 -10.422707,0 -18.871074,-8.44837 -18.871074,-18.86892 -0.0032,-1.8471 0.267416,-3.68342 0.800358,-5.45262 0.87395,0.94162 2.06276,1.52901 3.341068,1.65113 -0.280085,1.21307 -0.450724,2.62427 -0.450724,3.80041 0,8.38206 6.794277,15.17929 15.18145,15.17929 7.803821,0 14.227163,-5.88635 15.081163,-13.45969 h 3.65297 z"
         style="display:inline;fill:url(#linearGradient7);fill-opacity:1;fill-rule:evenodd;stroke:none;stroke-width:0.269572" /><text
         xml:space="preserve"
         style="font-size:17.8939px;text-align:start;writing-mode:lr-tb;direction:ltr;text-anchor:start;fill:url(#linearGradient7);fill-opacity:1;stroke:#ffc631;stroke-width:0"
         x="55.214645"
         y="166.11572"
         id="text1"><tspan
           sodipodi:role="line"
           id="tspan1"
           x="55.214645"
           y="166.11572"
           style="font-style:normal;font-variant:normal;font-weight:bold;font-stretch:normal;font-family:Arial;-inkscape-font-specification:'Arial Bold';stroke-width:0;fill:url(#linearGradient7);fill-opacity:1">WunderGraph</tspan></text></g></g></svg>
