<svg
  xmlns="http://www.w3.org/2000/svg"
  fill="currentColor"
  overflow="visible"
  preserveAspectRatio="none"
  style="display: block"
  viewBox="0 0 48 37"
>
  <path
    d="M27.42 4.575V2.28h-2.28v2.295h-2.28V2.28h-2.295v2.295H0v2.28h2.28V9.15h2.295v22.845h2.28V9.15h34.29v22.845h2.28V9.15h2.28V6.855H48v-2.28zM41.145 31.995H38.85v2.295h2.295zM9.135 34.29v2.28H38.85v-2.28z"
  />
  <path
    d="M13.71 27.435V25.14h2.28v-2.28h-2.28V11.43h-2.28v18.285h25.14v-2.28zM34.29 13.71h-2.295v2.295h2.295z"
  />
  <path
    d="M31.995 16.005h-2.28v2.28h2.28zM29.715 18.285H27.42v2.295h2.295zM27.42 20.58h-2.28v2.28h2.28zM25.14 22.86h-2.28v2.28h2.28zM25.14 0h-2.28v2.28h2.28zM22.86 20.58h-2.295v2.28h2.295zM20.565 18.285h-2.28v2.295h2.28zM18.285 20.58H15.99v2.28h2.295zM9.135 31.995h-2.28v2.295h2.28z"
  />
</svg>
