<svg
  xmlns="http://www.w3.org/2000/svg"
  width="160"
  height="160"
  fill="currentColor"
  viewBox="0 0 160 160"
>
  <path
    d="M144.8 30.5V0H68.6v7.6H38.1v7.65H15.25V68.6h-7.6v15.2H0V160h160V30.5zM38.1 152.4H7.65v-45.75H38.1zm0-53.35H22.9v-76.2h15.2zm7.65-83.8H68.6v7.6H53.35v76.2h-7.6zM68.6 30.5v68.55H61V30.5zm7.6 121.9H45.75v-45.75H76.2zm76.2 0H83.85V99.05H76.2V7.6h60.95v22.9H114.3v7.6h38.1z"
  />
  <path
    d="M114.3 38.1h-7.6v15.25h7.6zM106.7 53.35h-7.65V68.6h7.65zM99.05 68.6h-7.6v15.2h7.6zM99.05 15.25h-7.6v7.6h7.6zM91.45 83.8h-7.6v15.25h7.6zM68.6 121.9H53.35v15.25H68.6zM30.5 121.9H15.25v15.25H30.5z"
  />
</svg>
