<svg
  xmlns="http://www.w3.org/2000/svg"
  fill="currentColor"
  overflow="visible"
  preserveAspectRatio="none"
  viewBox="0 0 46 46"
>
  <path
    d="M45.705 11.43h-2.28v2.28h2.28zM43.425 13.71H38.85v2.295h4.575zM43.425 9.15H38.85v2.28h4.575zM34.275 34.29v2.28h-4.56v2.295H25.14v2.28h-4.575v-2.28H15.99V36.57h-4.56v-2.28H6.855v-2.295H0v2.295h2.28v2.28h4.575v2.295h4.575v2.28h4.56v2.28h4.575v2.295h4.575v-2.295h4.575v-2.28h4.56v-2.28h4.575V36.57h4.575v-2.28h2.28v-2.295H38.85v2.295z"
  />
  <path
    d="M34.275 27.435v2.28h-4.56v2.28H25.14v2.295h-4.575v-2.295H15.99v-2.28h-4.56v-2.28H6.855V25.14H0v2.295h2.28v2.28h4.575v2.28h4.575v2.295h4.56v2.28h4.575v2.295h4.575V36.57h4.575v-2.28h4.56v-2.295h4.575v-2.28h4.575v-2.28h2.28V25.14H38.85v2.295z"
  />
  <path
    d="M34.275 20.58v2.28h-4.56v2.28H25.14v2.295h-4.575V25.14H15.99v-2.28h-4.56v-2.28H6.855v-2.295H0v2.295h2.28v2.28h4.575v2.28h4.575v2.295h4.56v2.28h4.575v2.28h4.575v-2.28h4.575v-2.28h4.56V25.14h4.575v-2.28h4.575v-2.28h2.28v-2.295H38.85v2.295z"
  />
  <path
    d="M38.85 16.005h-4.575v2.28h4.575zM38.85 6.855h-4.575V9.15h4.575zM34.275 18.285h-4.56v2.295h4.56zM34.275 4.575h-4.56v2.28h4.56zM29.715 20.58H25.14v2.28h4.575zM29.715 2.295H25.14v2.28h4.575zM25.14 22.86h-4.575v2.28h4.575zM25.14 0h-4.575v2.295h4.575zM20.565 20.58H15.99v2.28h4.575zM20.565 2.295H15.99v2.28h4.575zM15.99 18.285h-4.56v2.295h4.56zM15.99 4.575h-4.56v2.28h4.56zM11.43 16.005H6.855v2.28h4.575zM11.43 6.855H6.855V9.15h4.575zM6.855 13.71H2.28v2.295h4.575z"
  />
  <path d="M6.855 9.15H2.28v2.28h4.575zM2.28 11.43H0v2.28h2.28z" />
</svg>
