<svg fill="currentColor" aria-hidden="true" viewBox="0 0 24 24">
  <path
    d="M2.858 1.14h18.285v1.148h-1.14v1.14h1.14v2.287h1.147V22.86h1.14V4.575h-1.14V1.14h1.14V0H2.858z"
  />
  <path
    d="M5.145 22.86V5.715H12v-1.14H2.858v1.14h1.147V22.86H2.858V24H22.29v-1.14z"
  />
  <path
    d="M18.863 8.003h-1.148V4.575h-1.14V3.428h1.14v-1.14H12v1.14h1.148v1.147h1.14v11.423h1.14v-1.14h1.147v-1.14h1.14v1.14h1.148v1.14h1.14V4.575h-1.14z"
  />
  <path
    d="M18.863 3.428h-1.148v1.147h1.148zM10.86 2.288H4.005v1.14h6.855zM2.858 21.712h-1.14v1.148h1.14zM2.858 1.14h-1.14v1.148h1.14z"
  />
  <path d="M1.718 4.575h1.14V3.428h-1.14v-1.14H.57v19.425h1.148z" />
</svg>
