<svg
  xmlns="http://www.w3.org/2000/svg"
  fill="currentColor"
  overflow="visible"
  preserveAspectRatio="none"
  viewBox="0 0 48 48"
>
  <path
    d="M48 34.29h-2.295v9.135H48zM45.705 43.425h-2.28v2.295h2.28zM45.705 31.995h-2.28v2.295h2.28zM43.425 45.72h-9.15V48h9.15zM43.425 31.995v-2.28H36.57v-2.28h-2.295v4.56zM34.275 43.425h-2.28v2.295h2.28zM34.275 31.995h-2.28v2.295h2.28zM34.275 22.86h-2.28v4.575h2.28zM31.995 34.29H29.7v4.56H18.285v-4.56H15.99v9.135h2.295v-2.28H29.7v2.28h2.295zM31.995 18.285H29.7v4.575h2.295zM31.995 4.575H29.7v9.135h2.295zM29.7 2.28h-2.28v2.295h2.28zM27.42 0h-9.135v2.28h9.135zM29.7 18.285V13.71h-2.28v2.295h-9.135V13.71H15.99v4.575zM18.285 2.28H15.99v2.295h2.295zM15.99 43.425h-2.28v2.295h2.28zM15.99 31.995h-2.28v2.295h2.28zM15.99 18.285h-2.28v4.575h2.28zM15.99 4.575h-2.28v9.135h2.28zM13.71 22.86h-2.295v4.575h2.295zM13.71 45.72H4.56V48h9.15zM13.71 31.995v-2.28h-2.295v-2.28h-2.28v2.28H4.56v2.28zM4.56 43.425H2.28v2.295h2.28zM4.56 31.995H2.28v2.295h2.28zM2.28 34.29H0v9.135h2.28z"
  />
</svg>
