<svg
  xmlns="http://www.w3.org/2000/svg"
  fill="currentColor"
  overflow="visible"
  preserveAspectRatio="none"
  viewBox="0 0 46 48"
>
  <path
    d="M45.72 2.295h-2.295v27.42h2.295zM2.28 45.72v-2.28H0V48h45.72v-4.56h-2.295v2.28z"
  />
  <path
    d="M43.425 41.145h-2.28v2.295h2.28zM41.145 38.865h-2.28v2.28h2.28zM9.15 34.29v2.28h27.42v-2.28h-6.855v-2.28h13.71v-2.295H2.28v2.295h13.725v2.28zm9.135-2.28h9.15v2.28h-9.15zM38.865 36.57H36.57v2.295h2.295zM41.145 4.575H4.575v22.86h36.57zm-2.28 20.565H6.855V6.855h32.01zM36.57 41.145h-2.28v2.295h2.28zM34.29 38.865h-2.295v2.28h2.295zM29.715 41.145h-2.28v2.295h2.28zM27.435 38.865H25.14v2.28h2.295zM22.86 41.145h-2.295v2.295h2.295zM20.565 38.865h-2.28v2.28h2.28zM18.285 41.145h-2.28v2.295h2.28zM13.71 38.865h-2.28v2.28h2.28zM11.43 41.145H9.15v2.295h2.28zM9.15 36.57H6.855v2.295H9.15zM6.855 38.865h-2.28v2.28h2.28zM43.425 0H2.28v2.295h41.145zM4.575 41.145H2.28v2.295h2.295zM2.28 2.295H0v27.42h2.28z"
  />
</svg>
