<svg
  xmlns="http://www.w3.org/2000/svg"
  fill="currentColor"
  overflow="visible"
  preserveAspectRatio="none"
  viewBox="0 0 48 46"
>
  <path
    d="M48 4.575h-2.295v34.29H48zM45.705 38.865h-2.28v2.28h2.28zM45.705 2.295h-2.28v2.28h2.28zM4.575 41.145v2.295h4.56v2.28h2.295v-2.28h25.14v2.28h2.28v-2.28h4.575v-2.295zM41.145 6.87H6.855v29.715h34.29V32.01h2.28v-6.855h-2.28V18.3h2.28v-6.87h-2.28zm-2.295 4.56h-2.28v6.87h2.28v6.855h-2.28v6.855h2.28v2.28H9.135V9.15H38.85z"
  />
  <path
    d="M34.29 16.005h-2.295v11.43h2.295zM31.995 27.435h-2.28v2.28h2.28zM31.995 13.725h-2.28v2.28h2.28zM29.715 18.3H27.42v6.855h2.295zM29.715 29.715h-11.43v2.295h11.43zM27.42 25.155h-6.855v2.28h6.855zM27.42 16.005h-6.855V18.3h6.855zM29.715 11.43h-11.43v2.295h11.43zM20.565 18.3h-2.28v6.855h2.28zM18.285 27.435H15.99v2.28h2.295zM18.285 13.725H15.99v2.28h2.295zM15.99 16.005h-2.28v11.43h2.28zM43.425 0H4.575v2.295h38.85zM4.575 38.865H2.28v2.28h2.295zM4.575 2.295H2.28v2.28h2.295zM2.28 4.575H0v34.29h2.28z"
  />
</svg>
