<svg
  xmlns="http://www.w3.org/2000/svg"
  width="24"
  height="24"
  fill="currentColor"
  viewBox="0 0 24 24"
>
  <path
    d="M24.002 6.858h-1.148v14.858h1.148zM22.854 21.716h-1.14v1.14h1.14zM21.714 9.146h-1.14v11.423h1.14z"
  />
  <path
    d="M20.574 21.716h-1.147v1.14H2.289v1.14h19.425v-1.14h-1.14zM18.286 21.716h1.14V6.86h3.428V5.71h-3.428V2.284h-1.14zM17.146 20.568H4.57v1.148h12.577zM17.146 11.426h-3.435v3.428h3.435zM12.572 11.426H9.144v1.148h3.428zM12.572 13.713H9.144v1.14h3.428zM17.147 18.289H2.289v1.14h14.858zM17.147 16.001H2.289v1.14h14.858zM8.004 13.713H2.29v1.14h5.715zM8.004 11.426H2.29v1.148h5.715zM17.147 10.286V4.575H2.289v5.715zM3.429 5.711h4.575v1.147H6.857v1.14h-1.14V9.15H3.429zM18.286 1.144H1.141v1.14h17.145z"
  />
  <path d="M2.289 21.716H1.14v1.14H2.29zM1.141 2.284H.001v19.432h1.14z" />
</svg>
