<svg
  xmlns="http://www.w3.org/2000/svg"
  fill="currentColor"
  overflow="visible"
  preserveAspectRatio="none"
  viewBox="0 0 39 48"
>
  <path
    d="M36.57 20.565h-2.28V13.71h-2.295v18.285h2.295V22.86h2.28v2.28h2.295v-6.855H36.57zM29.715 43.425V48h2.28v-2.28h4.575V48h2.295v-6.855H36.57v2.28zM36.57 2.28h-2.28v2.295h2.28zM34.29 4.575h-2.295v2.28h2.295zM34.29 0h-2.295v2.28h2.295zM31.995 31.995h-2.28v2.295h2.28zM31.995 11.43h-2.28v2.28h2.28zM27.435 20.565H25.14v-2.28h-2.28v4.575h2.28v2.28h2.295v-2.28h2.28v-4.575h-2.28zM29.715 2.28h-2.28v2.295h2.28z"
  />
  <path
    d="M9.15 34.29v2.28h2.28v2.28H2.28v2.295h34.29V38.85h-9.135v-2.28h2.28v-2.28zm15.99 4.56H13.71v-2.28h11.43zM27.435 4.575H25.14v2.28h2.295zM27.435 0H25.14v2.28h2.295zM11.43 43.425V48h2.28v-2.28h11.43V48h2.295v-4.575zM22.86 2.28h-2.295v2.295h2.295zM20.565 27.42h-2.28v2.295h-2.28v2.28h6.855v-2.28h-2.295zM20.565 0h-2.28v2.28h2.28zM18.285 2.28h-2.28v2.295h2.28zM16.005 18.285H13.71v2.28h-2.28v-2.28H9.15v4.575h2.28v2.28h2.28v-2.28h2.295z"
  />
  <path
    d="M11.43 13.71h2.28v2.295h11.43V13.71h2.295v-2.28h2.28V9.135h-9.15v-4.56h-2.28v4.56H9.15v2.295h2.28zM13.71 4.575h-2.28v2.28h2.28zM13.71 0h-2.28v2.28h2.28z"
  />
  <path
    d="M11.43 2.28H9.15v2.295h2.28zM9.15 31.995H6.855v2.295H9.15zM9.15 11.43H6.855v2.28H9.15zM6.855 13.71h-2.28v6.855H2.28v-2.28H0v6.855h2.28v-2.28h2.295v9.135h2.28zM6.855 4.575h-2.28v2.28h2.28zM6.855 0h-2.28v2.28h2.28zM4.575 2.28H2.28v2.295h2.295zM0 48h2.28v-2.28h4.575V48H9.15v-4.575H2.28v-2.28H0z"
  />
</svg>
