<svg
  xmlns="http://www.w3.org/2000/svg"
  width="160"
  height="160"
  viewBox="0 0 160 160"
  fill="currentColor"
>
  <path
    d="M152.4 129.5h-7.65v7.65H160v-30.5h-7.6zM144.75 22.85v7.6h7.65v22.9h7.6v-30.5zM152.4 99.05h-7.65v7.6h7.65zM152.4 53.35h-7.65v7.6h7.65zM144.75 121.9h-7.6v7.6h7.6zM144.75 30.45h-7.6v7.65h7.6z"
  />
  <path
    d="M114.3 114.3v22.85h7.6v7.6h7.65v7.65H106.7v7.6h38.05v-15.25h-7.6v-7.6h-7.6V121.9h7.6v-7.6zM144.75 60.95H114.3v7.6h30.45zM129.55 15.25h-7.65v7.6h7.65zM114.3 45.7h22.85v-7.6H121.9V22.85h-7.6zM129.55 7.6v7.65h7.6V0H106.7v7.6zM106.7 144.75h-7.65v7.65h7.65zM106.7 99.05h-7.65v7.6h7.65z"
  />
  <path
    d="M99.05 60.95h-7.6V45.7H76.2V15.25h-7.6V7.6h-7.65V0h-38.1v15.25h7.65V7.6h22.85v7.65h7.6V45.7h7.65v7.65h7.6v7.6h7.6v7.6h7.65v7.65h7.6v7.6h7.65v7.6h7.6v7.65h30.45V91.4H121.9v-7.6h-7.6V68.55H99.05zM106.7 7.6h-7.65v7.65h7.65zM99.05 114.3h-7.6v30.45h7.6zM99.05 91.4h-7.6v7.65h7.6z"
  />
  <path
    d="M99.05 15.25h-7.6V45.7h7.6zM91.45 106.65H83.8v7.65h7.65zM91.45 83.8H83.8v7.6h7.65zM83.8 99.05h-7.6v7.6h7.6zM83.8 76.2h-7.6v7.6h7.6zM76.2 106.65h-7.6v7.65h7.6zM76.2 91.4h-7.6v7.65h7.6zM76.2 68.55h-7.6v7.65h7.6zM68.6 114.3h-7.65v30.45h7.65zM68.6 83.8h-7.65v7.6h7.65zM68.6 60.95h-7.65v7.6h7.65zM60.95 144.75h-7.6v7.65h7.6zM60.95 76.2h-7.6v7.6h7.6zM60.95 53.35h-7.6v7.6h7.6zM53.35 83.8h-7.6v7.6h7.6zM53.35 68.55h-7.6v7.65h7.6zM30.5 152.4v-7.65h-7.65V160h30.5v-7.6zM45.75 114.3h-22.9v7.6H38.1v15.25h7.65zM45.75 60.95h-30.5v7.6h30.5zM38.1 137.15h-7.6v7.6h7.6zM38.1 15.25h-7.6v7.6h7.6zM45.75 91.4h-30.5v7.65h30.5zM45.75 45.7V22.85H38.1V38.1H22.85v7.6zM22.85 121.9h-7.6v7.6h7.6zM22.85 30.45h-7.6v7.65h7.6zM15.25 99.05h-7.6v7.6h7.6zM15.25 53.35h-7.6v7.6h7.6zM7.65 106.65H0v30.5h15.25v-7.65h-7.6zM7.65 30.45h7.6v-7.6H0v30.5h7.65z"
  />
</svg>
