<svg fill="currentColor" aria-hidden="true" viewBox="0 0 144 144">
  <path
    d="M139.081 30.825h-6.885v82.305h6.885zM132.196 113.13h-6.84v6.84h6.84zM132.196 23.985h-6.84v6.84h6.84zM125.361 119.97H15.651v6.885h109.71zM91.07 58.275h-6.84v-6.84h-6.889V44.55h-6.84v-6.84H49.936v68.58h20.565v-6.885h6.84v-6.84h6.89V85.68h6.84v-6.84h6.835V65.115h-6.835zM125.361 17.145H15.651v6.84h109.71zM15.647 113.13H8.76v6.84h6.886zM15.647 23.985H8.76v6.84h6.886z"
  />
  <path d="M8.761 30.825h-6.84v82.305h6.84z" />
</svg>
