<svg
  xmlns="http://www.w3.org/2000/svg"
  width="24"
  height="24"
  fill="currentColor"
  viewBox="0 0 24 24"
>
  <path d="M23.996 20.571h-1.14v1.14h1.14zM23.996 1.14h-1.14v16.004h1.14z" />
  <path
    d="M22.856 21.711h-1.14v1.148h1.14zM22.856 19.432h-1.14v1.14h1.14zM22.856-.001H1.144v1.14h21.712zM21.716 22.859H20.57v1.14h1.147zM21.716 18.284H20.57v1.148h1.147zM21.716 14.856H20.57v1.14h1.147zM21.716 11.43h-4.575v1.14h4.575zM20.569 21.711h-1.14v1.148h1.14zM20.569 17.144h-1.14v1.14h1.14zM19.429 20.571h-1.14v1.14h1.14zM19.429 15.997h-1.14v1.147h1.14zM18.289 19.432H17.14v1.14h1.148zM18.289 14.856H17.14v1.14h1.148zM17.141 18.284h-1.14v1.148h1.14zM17.141 13.716h-1.14v1.14h1.14zM16.001 17.144h-1.147v1.14H16zM16.001 12.569h-1.147v1.147H16zM14.854 15.997h-1.14v1.147h1.14zM13.714 14.856h-1.14v1.14h1.14zM21.716 3.427h-10.29v1.147h10.29z"
  />
  <path
    d="M14.854 12.57v-1.14h-3.428v3.427h1.148v-2.288zM21.716 6.854h-10.29v1.148h10.29zM10.286 2.287H2.284v8.002h8.002zM9.15 5.714H8.003v-1.14H6.859v3.428h1.14v1.14H4.575v-1.14h1.14V4.575h-1.14v1.14H3.431V3.427h5.72zM9.146 11.43H2.284v1.14h6.862zM7.167 18.284h5.407v-1.14H4.5v1.14zM9.146 14.856H2.284v1.14h6.862z"
  />
  <path d="M4.571 17.144H1.144v1.14H4.57zM1.144 1.14H-.004v16.004h1.148z" />
</svg>
