<svg
  xmlns="http://www.w3.org/2000/svg"
  width="114"
  height="38"
  viewBox="0 0 114 38"
  fill="currentColor"
>
  <g clip-path="url(#clip0_1645_25547)">
    <path
      d="M114 0V28.379H107.499V0H114ZM105.106 9.57779V28.4308H99.3279V26.8057C98.597 27.5146 97.7615 28.0505 96.8391 28.4308C95.9079 28.8285 94.8985 29.0359 93.8194 29.0359C92.4618 29.0359 91.2 28.7853 90.0426 28.2839C88.8852 27.7566 87.8757 27.0391 87.0229 26.1401C86.1614 25.2325 85.4826 24.1779 84.9779 22.9763C84.4992 21.7489 84.2643 20.4263 84.2643 19.0173C84.2643 17.6083 84.4992 16.303 84.9779 15.1014C85.4826 13.874 86.1614 12.8021 87.0229 11.8944C87.8737 10.9937 88.9015 10.2758 90.0426 9.78525C91.2 9.25795 92.4618 8.98998 93.8194 8.98998C94.8985 8.98998 95.9079 9.1888 96.8391 9.59507C97.7702 9.97542 98.6057 10.5114 99.3279 11.2202V9.59507H105.106V9.57779ZM94.8637 23.2962C96.0472 23.2962 97.0131 22.8985 97.7702 22.086C98.5534 21.2821 98.945 20.2534 98.945 19C98.945 17.7466 98.5534 16.7093 97.7702 15.914C97.0131 15.1101 96.0385 14.7038 94.8637 14.7038C93.6889 14.7038 92.6968 15.1015 91.9136 15.914C91.1565 16.7179 90.7823 17.7466 90.7823 19C90.7823 20.2534 91.1652 21.2907 91.9136 22.086C92.6968 22.8899 93.6802 23.2962 94.8637 23.2962ZM74.9876 0C76.702 0 78.164 0.242038 79.3736 0.717471C80.5832 1.1929 81.6014 1.85851 82.4368 2.71429C83.2896 3.596 83.9597 4.59873 84.4383 5.73112C84.917 6.86352 85.1519 8.08235 85.1519 9.38763C85.1519 10.6929 84.917 11.9117 84.4383 13.0441C83.9686 14.1661 83.2895 15.1897 82.4368 16.061C81.6101 16.9167 80.5832 17.5824 79.3736 18.0578C78.164 18.5332 76.702 18.7753 74.9876 18.7753H71.8548V28.4222H65.2411V0H74.9876ZM74.0391 12.9318C74.9267 12.9318 75.5968 12.8453 76.0841 12.6638C76.5889 12.465 77.0066 12.2056 77.3286 11.9117C78.0073 11.2807 78.3467 10.4422 78.3467 9.38762C78.3467 8.33302 78.0073 7.49454 77.3286 6.86351C76.9979 6.56096 76.5889 6.31892 76.0841 6.14604C75.6055 5.94722 74.9267 5.84349 74.0391 5.84349H71.8461V12.9318H74.0391ZM40.8747 9.57779H48.0541L52.9273 18.6197H53.0057L57.3481 9.57779H63.9967L49.751 38H43.1373L49.6379 24.9991L40.8747 9.57779ZM39.5954 9.57779V28.4308H33.8171V26.8057C33.0861 27.5146 32.2507 28.0505 31.3282 28.4308C30.3971 28.8285 29.3876 29.0359 28.3085 29.0359C26.951 29.0359 25.6892 28.7853 24.5318 28.2839C23.3743 27.7566 22.3649 27.0391 21.5121 26.1401C20.6592 25.2325 19.9718 24.1779 19.467 22.9763C18.9884 21.7489 18.7534 20.4263 18.7534 19.0173C18.7534 17.6083 18.9884 16.303 19.467 15.1014C19.9718 13.874 20.6505 12.8021 21.5121 11.8944C22.3612 10.9918 23.3894 10.2737 24.5318 9.78525C25.6892 9.25795 26.951 8.98998 28.3085 8.98998C29.3876 8.98998 30.3971 9.1888 31.3282 9.59507C32.2594 9.97542 33.0948 10.5114 33.8171 11.2202V9.59507H39.5954V9.57779ZM29.3528 23.2962C30.5363 23.2962 31.5023 22.8985 32.2681 22.086C33.0513 21.2821 33.4429 20.2534 33.4429 19C33.4429 17.7466 33.0513 16.7093 32.2681 15.914C31.511 15.1101 30.5363 14.7038 29.3528 14.7038C28.1693 14.7038 27.186 15.1015 26.4027 15.914C25.6456 16.7179 25.2714 17.7466 25.2714 19C25.2714 20.2534 25.6544 21.2907 26.4027 22.086C27.186 22.8899 28.1693 23.2962 29.3528 23.2962ZM9.74656 0C11.4609 0 12.9229 0.242038 14.1325 0.717471C15.3421 1.1929 16.3603 1.85851 17.1957 2.71429C18.0486 3.596 18.7186 4.59873 19.1973 5.73112C19.6759 6.86352 19.9108 8.08235 19.9108 9.38763C19.9108 10.6929 19.6759 11.9117 19.1973 13.0441C18.7275 14.1661 18.0484 15.1897 17.1957 16.061C16.369 16.9167 15.3421 17.5824 14.1325 18.0578C12.9229 18.5332 11.4609 18.7753 9.74656 18.7753H6.61374V28.4222H0V0H9.74656ZM8.80671 12.9318C9.69435 12.9318 10.3644 12.8453 10.8518 12.6638C11.3565 12.465 11.7742 12.2056 12.0962 11.9117C12.775 11.2807 13.1144 10.4422 13.1144 9.38762C13.1144 8.33302 12.775 7.49454 12.0962 6.86351C11.7655 6.56096 11.3565 6.31892 10.8518 6.14604C10.3731 5.94722 9.69435 5.84349 8.80671 5.84349H6.61374V12.9318H8.80671Z"
    />
  </g>
  <defs>
    <clipPath id="clip0_1645_25547">
      <rect width="114" height="38" fill="white" />
    </clipPath>
  </defs>
</svg>
