<svg
  width="193"
  height="193"
  viewBox="0 0 193 193"
  fill="none"
  xmlns="http://www.w3.org/2000/svg"
>
  <g clip-path="url(#clip0_6245_8094)">
    <path
      d="M192.755 55.0557H183.539V128.484H192.755V55.0557Z"
      fill="#83BD02"
    />
    <path
      d="M183.541 45.8999H174.385V55.0558H183.541V45.8999Z"
      fill="#83BD02"
    />
    <path
      d="M100.955 128.484V55.0559H91.7991V45.9H128.483V73.4279H137.639V45.9H174.383V36.7441H137.639V27.528H165.227V0H128.483V36.7441H45.899V45.9H36.6829V55.0559H27.527V128.484H18.3711V137.7H82.5829V146.856H91.7991V192.756H100.955V137.7H128.483V192.756H137.639V137.7H183.539V128.484H100.955ZM137.639 9.15591H156.011V18.372H137.639V9.15591ZM91.7991 110.172H82.5829V119.328H91.7991V128.484H45.899V73.4279H91.7991V110.172Z"
      fill="#83BD02"
    />
    <path
      d="M82.5836 100.956H73.4277V110.172H82.5836V100.956Z"
      fill="#83BD02"
    />
    <path
      d="M82.5833 146.856H64.2715V156.012H82.5833V146.856Z"
      fill="#83BD02"
    />
    <path
      d="M64.2728 91.8001V82.584H55.0566V91.8001H64.2125V100.956H73.4287V91.8001H64.2728Z"
      fill="#83BD02"
    />
    <path
      d="M64.2728 156.012H55.0566V165.228H64.2728V156.012Z"
      fill="#83BD02"
    />
    <path
      d="M55.0563 165.228H9.15625V174.384H55.0563V165.228Z"
      fill="#83BD02"
    />
    <path d="M18.3724 137.7H9.15625V146.856H18.3724V137.7Z" fill="#83BD02" />
    <path d="M9.15591 146.856H0V165.228H9.15591V146.856Z" fill="#83BD02" />
  </g>
  <defs>
    <clipPath id="clip0_6245_8094">
      <rect width="192.756" height="192.756" fill="white" />
    </clipPath>
  </defs>
</svg>
