<svg width="40" height="40" viewBox="0 0 40 40" fill="none" xmlns="http://www.w3.org/2000/svg">
<path d="M26.668 21.667L26.668 25L30.001 25L30.001 21.667L33.334 21.667L33.334 18.333L30.001 18.333L30.001 15L26.668 15L26.668 18.333L6.66797 18.333L6.66797 21.667L26.668 21.667ZM26.668 15L26.668 11.667L23.334 11.667L23.334 15L26.668 15ZM26.668 28.333L26.668 25L23.334 25L23.334 28.333L26.668 28.333ZM20.001 11.667L23.334 11.667L23.334 8.33301L20.001 8.33301L20.001 11.667ZM23.334 31.667L23.334 28.333L20.001 28.333L20.001 31.667L23.334 31.667Z" fill="#507501"/>
</svg>
