<?xml version="1.0" encoding="UTF-8"?><!DOCTYPE svg PUBLIC "-//W3C//DTD SVG 1.1//EN" "http://www.w3.org/Graphics/SVG/1.1/DTD/svg11.dtd">
<svg
  fill="currentColor"
  xmlns="http://www.w3.org/2000/svg"
  xmlns:xlink="http://www.w3.org/1999/xlink"
>
  <defs />
  <symbol id="ballerina" viewBox="0 0 18 32">
    <path
      d="M10.303 15.667v4.349L14.021 32h3.93V18.543zm7.648-3.874-5.235 1.969 5.235 1.968zm0-2.812V0h-7.648v11.858zM7.653 15.667v4.349L3.935 32H.006V18.543zM.006 11.793l5.234 1.969L.006 15.73zm0-2.812V0h7.647v11.858z"
    />
  </symbol>
  <symbol id="c-net" viewBox="0 0 29 32">
    <path
      d="M0 10.033v11.854c0 1.467.79 2.823 2.071 3.556L12.43 31.37a4.17 4.17 0 0 0 4.143 0l10.357-5.927a4.1 4.1 0 0 0 1.516-1.503A4.1 4.1 0 0 0 29 21.887V10.033c0-.72-.191-1.429-.555-2.053a4.1 4.1 0 0 0-1.516-1.503L16.57.55a4.17 4.17 0 0 0-4.142 0L2.07 6.477c-.63.36-1.152.879-1.516 1.503A4.1 4.1 0 0 0 0 10.033"
    />
    <path
      fill="var(--bg)"
      d="M7.25 13.908v4.107a1.02 1.02 0 0 0 .303.727 1.04 1.04 0 0 0 .733.3 1.05 1.05 0 0 0 .733-.3 1.03 1.03 0 0 0 .303-.727c0-.272.11-.533.304-.726a1.04 1.04 0 0 1 1.464 0c.194.193.304.454.304.726 0 1.701-1.392 3.08-3.108 3.08s-3.107-1.379-3.107-3.08V13.91c0-1.701 1.391-3.08 3.107-3.08s3.108 1.379 3.108 3.08c0 .272-.11.533-.304.726a1.04 1.04 0 0 1-1.464 0 1.02 1.02 0 0 1-.304-.726c0-.272-.109-.533-.303-.726a1.04 1.04 0 0 0-1.465 0 1.02 1.02 0 0 0-.303.726m16.572 4.107a1.02 1.02 0 0 1-.303.726 1.04 1.04 0 0 1-.733.3H21.75v1.027a1.02 1.02 0 0 1-.639.95 1.04 1.04 0 0 1-1.129-.224 1.02 1.02 0 0 1-.303-.726v-1.026h-2.071v1.026a1.01 1.01 0 0 1-.303.727 1.03 1.03 0 0 1-.733.3 1.04 1.04 0 0 1-.958-.634 1 1 0 0 1-.078-.393v-1.026H14.5a1.04 1.04 0 0 1-.733-.3 1.02 1.02 0 0 1 0-1.453c.195-.192.458-.3.733-.3h1.036v-2.053H14.5a1.04 1.04 0 0 1-.733-.3 1.02 1.02 0 0 1 0-1.453c.195-.192.458-.3.733-.3h1.036v-1.027c0-.272.109-.533.303-.726a1.04 1.04 0 0 1 1.465 0c.194.193.303.454.303.726v1.026h2.071v-1.026c0-.272.11-.533.304-.726a1.04 1.04 0 0 1 1.464 0c.194.193.304.454.304.726v1.026h1.036a1.04 1.04 0 0 1 .957.634 1.02 1.02 0 0 1-.226 1.118 1.03 1.03 0 0 1-.731.302H21.75v2.053h1.036c.274 0 .537.109.731.301s.304.453.305.725m-4.143-3.08h-2.071v2.054h2.07z"
    />
  </symbol>
  <symbol id="d" viewBox="0 0 24 24">
    <path
      d="M22.635 3.883a1.364 1.25 0 0 0-1.363 1.25 1.364 1.25 0 0 0 1.363 1.25A1.364 1.25 0 0 0 24 5.133a1.364 1.25 0 0 0-1.365-1.25m-16.004.418-6.027.008c-.026 0-.051-.003-.076 0-.296.036-.527.273-.528.558l.018 14.574c0 .22.06.676.682.676l5.58-.021c1.595-.003 2.664-.031 3.3-.112h.016a11.4 11.4 0 0 0 1.955-.469c1.22-.38 2.3-.944 3.23-1.697a7.85 7.85 0 0 0 2.114-2.562 6.7 6.7 0 0 0 .646-1.987 4.244 3.89 0 0 0 .26.028 4.244 3.89 0 0 0 4.244-3.89 4.244 3.89 0 0 0-4.244-3.89 4.244 3.89 0 0 0-2.9 1.082 8.8 8.8 0 0 0-2.25-1.355c-1.536-.65-3.536-.948-6.02-.943m-.262 3.004c1.215-.003 2.079.034 2.569.101a7.3 7.3 0 0 1 1.617.436c.57.218 1.068.483 1.496.814 1.177.915 1.732 1.999 1.734 3.432.003 1.468-.534 2.611-1.68 3.57a5.6 5.6 0 0 1-1.177.742c-.409.19-.942.355-1.615.496-.636.128-1.6.2-2.856.202l-2.673.004-.012-9.793 2.598-.004z"
    />
  </symbol>
  <symbol id="clojure" viewBox="0 0 32 32">
    <path
      d="M15.337 16.288a79 79 0 0 0-.516 1.144c-.642 1.456-1.354 3.227-1.613 4.361-.103.48-.153.97-.15 1.462q.002.33.03.685c.91.333 1.89.517 2.915.52a8.5 8.5 0 0 0 2.668-.435 5 5 0 0 1-.558-.588c-1.138-1.452-1.772-3.576-2.776-7.149M11.14 9.084A8.47 8.47 0 0 0 7.543 16a8.47 8.47 0 0 0 3.5 6.845c.52-2.162 1.821-4.142 3.773-8.112q-.174-.48-.396-1.033c-.541-1.357-1.321-2.93-2.017-3.644a5.7 5.7 0 0 0-1.263-.972m12.23 16.619c-1.12-.14-2.045-.31-2.855-.595A10.167 10.167 0 0 1 6.74 11.804 10.1 10.1 0 0 1 9.301 8.36a7.5 7.5 0 0 0-1.765-.216c-2.981.027-6.13 1.677-7.44 6.136-.123.648-.093 1.139-.093 1.72 0 8.836 7.164 16 16 16 5.412 0 10.19-2.69 13.086-6.801-1.565.39-3.073.577-4.36.581q-.725 0-1.36-.077m-3.006-3.1c.099.048.323.129.633.217A8.47 8.47 0 0 0 24.464 16h-.003a8.47 8.47 0 0 0-8.46-8.46 8.4 8.4 0 0 0-2.656.432c1.72 1.957 2.544 4.755 3.343 7.816l.001.004c.002.003.256.85.691 1.973s1.052 2.514 1.724 3.527c.443.68.93 1.168 1.26 1.31M16.001 0A15.97 15.97 0 0 0 3 6.684C4.51 5.737 6.053 5.394 7.4 5.408c1.859.005 3.321.581 4.023.976q.253.147.488.31a10.167 10.167 0 0 1 13.472 13.227 10.1 10.1 0 0 1-2.24 3.312c.458.051.945.084 1.445.082 1.77 0 3.688-.391 5.123-1.598.937-.789 1.721-1.944 2.156-3.676Q31.999 17.037 32 16C32 7.164 24.84 0 16.001 0"
    />
  </symbol>
  <symbol id="elixir" viewBox="0 0 32 32">
    <path
      d="M22.525 20c.2-.125.425-.25.625-.375 1.4-1.2.9-3.375-1.475-6.425.05 1.525.3 3.1.55 4.775q.15.975.3 2.025M9 25.8c.8 3.425 2.825 5.275 5.125 6.05 1.275.225 2.55.175 3.825-.1.2-.1.375-.225.55-.35.5-.325.925-.7 1.325-1.075-1.625-.7-3.275-2.05-4.825-3.65-1.2-.075-2.375-.2-3.4-.35-1-.1-1.85-.275-2.6-.525M8.65 9.675l-.05.35c-.35 1.975-.375 3.75-.1 5.3.275-1.85.65-3.75 1.175-5.575.075-.275.15-.575.25-.875h.025c.4-1.25.85-2.45 1.375-3.575-1 1.325-1.875 2.8-2.675 4.375"
    />
    <path
      d="M8.475 28.5a9.2 9.2 0 0 0 2.975 2.475c-1.4-1.15-2.5-2.875-3-5.35-.95-.35-1.7-.825-2.275-1.425.4 1.6 1.15 3.075 2.3 4.3m-.15-11.75q-.675-2.213-.45-5.1c-.275.575-.525 1.2-.8 1.825C5.95 16.75 5.45 20.15 5.925 23.15c.525.8 1.3 1.45 2.4 1.9-.35-1.925-.375-4.975 0-8.3m.55 8.45q0 .038 0 0c.8.3 1.7.5 2.775.625.875.15 1.825.25 2.825.325C12.4 23.875 10.575 21.2 9.4 19c-.275-.4-.5-.825-.7-1.25-.275 3.05-.2 5.775.175 7.45m12.85-7.175c-.275-1.875-.575-3.775-.575-5.575-3.175-2.95-6.25-6.1-6.125-11.175-.1.075-.2.15-.275.225-.55.475-1.1 1-1.625 1.575C12 4.675 11.1 6.725 10.4 8.95c-.4 2.9 2.4 8.575 6.125 12.925 1.8-.075 3.7-.625 5.525-1.625-.1-.725-.2-1.475-.325-2.225m2.5 9.925a8.5 8.5 0 0 1-1.95-.65 8.1 8.1 0 0 1-1.6 2.85c.275.075.525.15.775.175 1.05-.625 2-1.45 2.775-2.375"
    />
    <path
      d="M15.525.9C15.25 5.775 18.05 8.875 21.1 11.7 18.425 8.15 16.875 6.025 16.875.075q-.638.338-1.35.825M20.8 26.45c-1.325.2-2.7.275-4.05.275-.35 0-.725 0-1.075-.025 1.45 1.45 3 2.65 4.5 3.25a7.5 7.5 0 0 0 1.65-2.9 8.4 8.4 0 0 1-1.025-.6m-.6-.4c-.5-.35-.95-.725-1.375-1.1A27 27 0 0 1 16.3 22.4c-1.775.025-3.425-.4-4.775-1.275a5 5 0 0 1-.575-.425c1.15 1.825 2.625 3.825 4.225 5.5 1.625.075 3.375.05 5.025-.15m2.4.05c-.05.25-.1.475-.175.725.7.35 1.425.6 2.15.675A9.1 9.1 0 0 0 26 24.675c-.925.625-2.1 1.1-3.4 1.425"
    />
    <path
      d="M11.8 20.7c1.175.75 2.575 1.15 4.075 1.2-3.075-3.65-5.45-8.1-5.925-11.25-.575 2.225-.775 3.6-1.1 5.9v.05c.225.575.525 1.275.925 2.025.525.85 1.2 1.55 2.025 2.075m10.325.1c-1.7.925-3.475 1.45-5.175 1.575.725.8 1.45 1.55 2.2 2.2.525.475 1.125.95 1.775 1.375.425-.075.825-.15 1.225-.225.25-1.575.175-3.225-.025-4.925m.55 4.775c1.4-.375 2.625-.9 3.525-1.65.375-1.725.25-3.6-.575-5.6a58 58 0 0 0-2.075-3.25c1.2 2.2 1.175 3.8-.1 4.9l-.025.025c-.275.175-.55.35-.85.525.225 1.725.325 3.45.1 5.05"
    />
  </symbol>
  <symbol id="elm" viewBox="0 0 24 24">
    <path
      d="m12 11.327 5.174-5.174H6.796zM.643 0l5.235 5.204h11.357L12 0zm17.694 6.306 5.632 5.663-5.663 5.664L12.643 12zM24 10.653V0H13.316zM11.327 12 0 .643v22.684zm7.622 6.306L24 23.326v-10.07zM12 12.643.643 24h22.684z"
    />
  </symbol>
  <symbol id="erlang" viewBox="0 0 24 24">
    <path
      d="M8.859 7.889c.154-1.863 1.623-3.115 3.344-3.119 1.734.004 2.986 1.256 3.029 3.119zm12.11 11.707c.802-.86 1.52-1.872 2.172-3.03l-3.616-1.807c-1.27 2.064-3.127 3.965-5.694 3.977-3.738-.012-5.206-3.208-5.198-7.322h13.966c.019-.464.019-.68 0-.904.091-2.447-.558-4.504-1.737-6.106l-.007.005H24v15.186h-3.039zm-17.206-.001C1.901 17.62.811 14.894.813 11.64c-.002-2.877.902-5.35 2.456-7.232H0v15.187h3.761Z"
    />
  </symbol>
  <symbol id="flutter" viewBox="0 0 32 32">
    <path
      d="M7.202 20.91 2.256 16l16-16h9.855zM18.256 32l-8.618-8.618 8.618-8.618h9.855l-8.619 8.618L28.111 32z"
    />
  </symbol>
  <symbol id="go" viewBox="0 0 44 40">
    <path
      d="M3.257 16.204c-.087 0-.108-.043-.065-.108l.442-.573c.043-.065.147-.108.23-.108h7.496c.086 0 .105.065.064.13l-.357.554c-.044.064-.147.127-.21.127zM.085 18.166c-.084 0-.106-.043-.065-.107l.442-.576c.043-.065.147-.108.23-.108h9.575c.086 0 .129.065.107.13l-.168.51c-.021.087-.105.13-.19.13zm5.082 1.963c-.086 0-.106-.065-.065-.13l.296-.532c.043-.065.125-.13.209-.13h4.2c.084 0 .125.065.125.151L9.89 20c0 .087-.082.151-.144.151zm21.795-4.309c-1.324.341-2.225.598-3.527.939-.315.086-.337.107-.61-.214-.316-.362-.546-.597-.986-.81-1.324-.66-2.605-.469-3.801.32-1.428.939-2.163 2.325-2.142 4.052.022 1.706 1.175 3.114 2.836 3.349 1.427.192 2.624-.322 3.568-1.408.19-.235.356-.492.567-.79h-4.053c-.44 0-.546-.278-.397-.64.272-.66.776-1.768 1.07-2.324a.56.56 0 0 1 .524-.341h7.643c-.043.576-.043 1.152-.125 1.727a9.16 9.16 0 0 1-1.723 4.181c-1.509 2.027-3.484 3.284-5.983 3.623-2.057.28-3.968-.128-5.65-1.406q-2.323-1.792-2.665-4.735c-.273-2.323.4-4.414 1.784-6.247 1.492-1.984 3.465-3.243 5.88-3.69 1.973-.362 3.864-.129 5.563 1.044 1.114.746 1.912 1.77 2.436 3.008.128.192.043.298-.209.362"
    />
    <path
      d="M33.91 27.613c-1.911-.043-3.653-.598-5.124-1.876a6.73 6.73 0 0 1-2.268-4.119c-.377-2.408.274-4.54 1.703-6.438 1.531-2.048 3.38-3.114 5.878-3.562 2.141-.384 4.157-.17 5.984 1.089 1.66 1.151 2.689 2.708 2.96 4.754.358 2.879-.461 5.225-2.415 7.23a9.57 9.57 0 0 1-5.039 2.73c-.567.108-1.134.13-1.68.194m4.999-8.616c-.022-.276-.022-.49-.065-.703-.378-2.113-2.286-3.306-4.282-2.836-1.952.447-3.213 1.704-3.675 3.709-.377 1.665.42 3.349 1.932 4.032 1.154.511 2.31.446 3.422-.13 1.66-.873 2.562-2.238 2.668-4.072"
    />
  </symbol>
  <symbol id="groovy" viewBox="0 0 24 24">
    <path
      d="M11.997 6.012S10.315 8.8 9.516 10.155c-.155.058-.172.041-.341.207-.41-.47-.897-.041-1.028.22-.057-.566-.151-.567-.279-.694.074-.496.316-1.305-.241-1.884-1.078-.727-2.326 1.05-3.021 1.982l-.375.622c-1.546-.032-2.763.008-4.231-.021 1.79.67 1.864.686 4.026 1.506 0 .066.161.372.34.552.147.15.308.234.389.284-.106.054-.32.138-.385.258-.292.546.139.672.418 1.107.315.568.382.944 1.126.625.254-.11.562-.148.758-.21-.693 1.094-.87 1.392-2.083 3.274l.012.004c4.85-1.893 4.974-1.942 7.373-2.89 3.448 1.338 3.646 1.448 7.432 2.891-.529-.826-.89-1.343-1.274-1.995.151-.013.483-.046.777-.233.213-.135.463-.288.688-.574.443-.565.551-1.277.39-2.166-.078-.423-.235-.834-.213-.85 2.061-.778 2.304-.862 4.226-1.587-2.31.034-2.422.01-4.591.016-.036-.414-.244-.627-.882-.606-.238.039-.389.12-.5.445-.357-.657-.85-.464-1.06-.14-.275-.282-.917-.377-1.24-.17-.238-.112-.514-.112-.757.177-.175-.146-.23-.188-.614-.342-.886-1.497-1.622-2.692-2.36-3.951zm.012.802c.35.535 1.552 2.61 1.849 3.074-.337.023-.668.202-.918.562-.217-.224-.47-.445-.917-.463-.544-.093-.834.148-1.2.568-.108-.365-.53-.45-.896-.28.327-.519 1.872-3.122 2.082-3.46zM7.45 9.128c-.05 1.434-1.068 2.712-1.798 2.245-.551-.449.149-1.584.59-1.985-.033.307.246.498.023.77-.446.543-.27.936-.078.996.513.162 1.004-1.227 1.004-2.201 0-.625-.366-.613-1.086.136-.983 1.022-1.513 2.012-1.16 2.69.197.38.485.651.959.594.925-.11 1.483-1.254 1.543-1.988.148-.003.109.01.148-.02 0 .129.177.755.317 1.166.183.702.964 2.11-1.369 2.658-.44.11-.614.148-1.05.32-.213-.443-.263-.585-.697-1.013.588-.205.593-.185.972-.317 1.467-.51 1.908-.947 1.857-1.57 0 0 .018-.32-.185-.588a2.6 2.6 0 0 1-.293.645c-.437.68-1.296 1.101-2.06.833-.417-.146-.596-.466-.596-1.015 0-.703 1.601-2.735 2.387-3.08.555-.165.579.293.571.724zm6.502 1.3c.26.006.543.133.735.34.594.64.529 1.417.163 1.905-.435.581-1.532.324-1.791-.488-.12-.378.095-1.312.475-1.624a.63.63 0 0 1 .418-.132zm-2.113.066a.5.5 0 0 1 .117.017c.503.03.61.313.701.56.231.626.173 1.212-.301 1.691-.711.719-1.54.401-1.536-.567.014-.69.443-1.715 1.02-1.7zm1.868.038c-.383.287-.432 1.023-.08 1.296.138.13.215.22.613.256.273.024.704-.253.725-.527.01-.125-.013-.333-.312-.67-.252-.283-.579-.349-.661-.3-.265.156.021.28.125.383.162.163.2.234.125.282a.45.45 0 0 1-.372.057c-.105-.049-.456-.246-.163-.777m3.759.003c.167.26.215.316.402.965.24.838.546 1.163.816 1.01.74-.418.148-1.476-.113-1.974.167-.002.134.007.286.005.12.471.086.387.407 1.813.385 1.706.442 2.16-.528 2.926-.446.352-1.103.37-1.667.34l-.636-.095c.438-.287.545-.557.542-1.116 1.278.535 1.959.132 2.23-.526.132-.317.086-.735-.04-1.471.008.6-.005.71-.084 1.007-.158.595-.547.76-.812.34-.102-.163-.345-.702-.42-1.282s-.132-1.395-.5-1.736c.04-.08.082-.17.117-.206m-1.247.01c.258.068.572.204.74.52.234.436.388.668.376 1.447-.014.832-.34 1.055-.557 1.086-.278.04-.762.034-1.049-1.598-.095-.541-.268-1.056-.45-1.224.09-.11.097-.096.165-.204.091.1.17.27.298.777.202.808.387.975.745 1.02.558.072.778-.78.318-1.391-.1-.134-.365-.307-.503-.236.008.236.113.162.114.318-.026.185-.053.219-.113.32-.142-.056-.21-.078-.334-.291-.157-.31-.055-.6.25-.544m-4.597.076c-.263.185-.594.8-.304 1.35.143.205.297.372.638.3.245-.051.671-.34.73-.749.052-.35-.456-1.028-.738-.87-.327.183-.128.314.074.511.185.18.052.289-.077.342-.258.106-.403.003-.467-.203-.065-.205-.01-.38.144-.68zm-2.867.064c.056.172.1.402.218.624.028.023.132 0 .269-.157.086-.1.185-.238.357-.463.104.095.113.166.142.219.073.13.225.12.273.106.168-.167.195-.275.306-.29.01.216.021.35-.257.677a.54.54 0 0 1-.501.172c-.12-.034-.199-.108-.389-.205-.258.04-.19.315-.143.546.12.611.5.855.832.675.116-.062.09-.062.312-.153-.038.388-.06.463.01.896-.541.301-.982.25-1.102-.506-.091-.632-.261-1.4-.415-1.556-.145-.147-.205-.195-.205-.195zm-7.114.082c.753.01 1.602.01 2.506.017-.13.318-.175.54-.193.854-.422-.163-1.877-.684-2.313-.871m20.723.01c-.997.359-1.715.637-2.677 1.004-.105-.45-.124-.588-.219-.994 1.601-.005 1.628-.002 2.896-.01m-6.978 2.04c.105.43.253.641.253.641.202.348.454.545.84.645.085.136.115.163.148.236.037.457.01.514-.344.774-.209.204-.218.497-.003.769.231.22.474.298 1.375.064.174.3.418.653.776 1.217-1.206-.455-2.868-1.103-6.43-2.49 0 0-4.169 1.62-6.404 2.491.935-1.474 1.012-1.599 1.677-2.63.225-.089.149-.053.349-.155.459-.245.827-.61 1.028-1.145.368.83.779.925 1.636.655.177-.082.38-.2.424-.518.46.413 1.432.49 2.142-.382.612.717 2.001.785 2.533-.171zm2.157.865s.04.129.064.169c-.101.003-.213 0-.213 0a1 1 0 0 0 .149-.17z"
    />
  </symbol>
  <symbol id="haskell" viewBox="0 0 32 32">
    <path
      d="M0 4.713 7.53 16 0 27.287h5.647L13.177 16 5.647 4.713zm7.53 0L15.058 16l-7.53 11.287h5.647l4.707-7.054 4.706 7.054h5.646L13.177 4.713zm11.92 6.584 2.511 3.763H32v-3.763zm3.766 5.643 2.51 3.763H32V16.94z"
    />
  </symbol>
  <symbol id="java-kotlin-android" viewBox="0 0 32 32">
    <path
      d="m20.85 6.088.075.042c-1.01.534-3.898 2.254-3.898 4.443 0 .739.422 1.45.818 2.12.35.59.679 1.144.679 1.65 0 1.277-1.244 2.267-1.947 2.723l-.133-.077c.265-.324.592-.867.592-1.445 0-.798-.41-1.435-.824-2.082-.43-.668-.864-1.346-.864-2.226 0-3.056 4.153-4.696 5.503-5.148m-5.46 1.616c1.671-1.494 3.497-3.126 3.497-5.58 0-1.11-.455-1.82-.68-2.104l-.074.041c.054.221.134.63.134 1.163 0 2.234-1.896 3.8-3.731 5.317-1.721 1.424-3.39 2.803-3.39 4.648 0 2.647 2.611 4.275 3.714 4.963l.084.053.067-.04a10 10 0 0 0-.19-.203c-.848-.902-2.136-2.272-2.136-4.366 0-1.47 1.298-2.632 2.706-3.892m-.6 13.21c2.351 0 3.997-.337 4.727-.544l1.11.64c-1.058.538-3.402.947-5.843.947-2.87 0-6.01-.616-6.019-1.437-.006-.454 1.02-.755 2.127-.95l.067.04s-.375.134-.371.443c.005.467 1.893.861 4.2.861m-4.705 2.895c0-.543 1.118-.8 1.63-.903l.067.04c-.088.066-.136.155-.136.231 0 .356 1.24.681 3.141.681 1.704 0 2.651-.209 3.214-.344l1.32.764c-.06.043-1.36.86-4.536.86-2.308 0-4.7-.576-4.7-1.329m11.372-2.304c1.573-.897 3.148-1.959 3.237-3.663.059-1.118-.97-1.938-2.093-1.72l.06-.149v-.003a3.6 3.6 0 0 1 1.022-.154c1.258 0 2.222.753 2.344 1.808.248 2.114-2.749 3.49-4.428 3.964zm2.633 3.984c.013 1.453-4.93 2.317-9.35 2.356-3.814.033-9.965-.687-9.978-2.14-.008-1.004 2.667-1.699 4.12-1.899l.153.087s-2.166.503-2.16 1.416c.008.91 4.567 1.699 7.859 1.67 5.1-.045 8.552-.875 8.96-2.002l.072-.041c.15.11.32.29.324.553M8.573 28.45c1.887.301 3.795.446 5.706.433 8.277-.072 10.613-2.106 10.973-2.549l.063.037c-.086 1.611-4.463 2.95-9.862 2.996-2.748.024-5.249-.293-7.046-.82zm3.47-12.377c-1.439.11-4.528.568-4.528 1.381 0 .616 2.832 1.484 7.269 1.484 3.992 0 6.512-.753 7.1-1.04l-.857-.5c-.614.167-2.892.675-6.243.675-1.973 0-5.373-.364-5.373-.92 0-.499 2.121-.883 2.73-.994l.039-.006z"
    />
  </symbol>
  <symbol id="javascript" viewBox="0 0 30 30">
    <path
      d="M5 0a5 5 0 0 0-5 5v20a5 5 0 0 0 5 5h20a5 5 0 0 0 5-5V5a5 5 0 0 0-5-5zm12.223 21.758q1.8 1.45 3.594 1.43 1.1 0 1.686-.403a1.25 1.25 0 0 0 .569-1.1 1.62 1.62 0 0 0-.567-1.247q-.587-.51-2.22-1.026-1.962-.567-3.025-1.467-1.044-.9-1.063-2.512 0-1.521 1.32-2.548 1.283-1.027 3.283-1.027 2.787 0 4.472 1.357l-1.284 1.998a4.3 4.3 0 0 0-1.558-.77 5.3 5.3 0 0 0-1.577-.275q-.95 0-1.521.349-.567.35-.567.916 0 .624.695 1.064.7.423 2.383.935 2.036.604 2.897 1.613.862 1.008.862 2.567 0 1.595-1.229 2.75-1.21 1.136-3.52 1.191-3.024 0-5.06-1.815zm-9.216 1.064q.586.366 1.411.366.862 0 1.43-.495.567-.513.569-1.778v-8.837h2.475v9.314q-.056 2.163-1.247 3.116c-.435.368-.94.642-1.485.807a5.5 5.5 0 0 1-1.558.238q-1.376 0-2.439-.476-1.136-.512-1.906-1.815L6.98 21.85q.475.642 1.027.972"
    />
  </symbol>
  <symbol id="julia" viewBox="0 0 24 24">
    <path
      d="M9.29 11.03c-3.597-2.074-3.597-7.286 0-9.36s8.118.532 8.118 4.68-4.52 6.754-8.118 4.68m1.526 6.62c0-4.147-4.52-6.753-8.118-4.68-3.597 2.074-3.597 7.287 0 9.36 3.597 2.074 8.118-.532 8.118-4.68m13.184 0c0-4.147-4.52-6.753-8.118-4.68-3.597 2.074-3.597 7.287 0 9.36C19.479 24.405 24 21.799 24 17.65"
    />
  </symbol>
  <symbol id="ocaml" viewBox="0 0 24 24">
    <path
      d="M12.178 21.637c-.085-.17-.187-.524-.255-.676-.067-.135-.27-.506-.37-.625-.22-.253-.27-.27-.338-.608-.12-.574-.405-1.588-.76-2.296-.187-.372-.49-.677-.761-.947-.236-.236-.777-.624-.878-.607-.895.169-1.166 1.046-1.587 1.739-.237.388-.473.71-.66 1.115-.167.371-.151.793-.439 1.115a2.95 2.95 0 0 0-.624 1.097c-.034.084-.101.929-.186 1.131l1.318-.084c1.233.085.877.557 2.787.456l3.022-.1a5.4 5.4 0 0 0-.27-.71zM20.96 1.539H3.023A3.02 3.02 0 0 0 0 4.56v6.587c.44-.152 1.047-1.08 1.25-1.3.337-.389.405-.895.574-1.2.389-.709.456-1.215 1.334-1.215.406 0 .575.1.845.473.186.253.523.743.675 1.064.186.371.474.86.609.962.1.068.185.136.27.17.135.05.253-.051.354-.12.118-.1.17-.286.287-.556.17-.39.339-.827.44-.997.169-.27.236-.608.422-.76.27-.236.641-.253.743-.27.557-.118.81.27 1.08.507.186.168.423.49.609.91.135.339.304.661.388.846.068.185.237.49.338.86.101.322.337.575.44.744 0 0 .152.406 1.03.778a8 8 0 0 0 .81.286c.39.135.76.12 1.233.068.338 0 .524-.49.676-.878.084-.237.185-.895.236-1.081s-.085-.32.034-.49c.135-.186.22-.203.287-.439.17-.523 1.114-.54 1.655-.54.456 0 .389.44 1.149.287.439-.085.86.05 1.318.185.388.102.76.22.98.473.134.17.489.997.134 1.031.033.033.067.118.118.151-.085.322-.422.085-.625.051-.253-.05-.44 0-.693.118-.439.187-1.063.17-1.452.49-.32.271-.32.861-.473 1.2 0 0-.422 1.063-1.317 1.722-.237.17-.692.574-1.672.726-.44.068-.86.068-1.318.05-.22-.016-.438-.016-.658-.016-.136 0-.575-.017-.558.034l-.05.119a.6.6 0 0 0 .033.169c.017.1.017.185.034.27 0 .185-.017.388 0 .574.017.388.17.743.186 1.148.017.44.236.913.456 1.267.085.135.203.152.254.32.067.186 0 .406.033.609.118.794.355 1.638.71 2.364v.017c.439-.067.895-.236 1.47-.32 1.063-.153 2.532-.085 3.478-.17 2.399-.22 3.7.98 5.844.49V4.562a3.045 3.045 0 0 0-3.04-3.023m-8.951 14.187q0-.051 0 0m-6.47 2.769c.17-.372.271-.778.406-1.15.135-.354.337-.86.693-1.046-.05-.05-.744-.068-.929-.085a7 7 0 0 1-.608-.084 23 23 0 0 1-1.15-.236c-.22-.051-.979-.322-1.13-.39-.39-.168-.642-.658-.93-.607-.185.034-.37.101-.49.287-.1.152-.134.423-.202.608-.084.203-.22.405-.32.608-.238.354-.626.676-.795 1.03-.033.085-.05.169-.084.254v4.07c.202.034.405.068.624.135 1.69.456 2.095.49 3.75.304l.152-.017c.118-.27.22-1.165.304-1.435.067-.22.153-.39.187-.591.033-.203 0-.406-.017-.59-.034-.491.354-.661.54-1.065z"
    />
  </symbol>
  <symbol id="perl" viewBox="0 0 24 24">
    <path
      d="M12 0A12 12 0 0 0 0 12a12 12 0 0 0 12 12 12 12 0 0 0 12-12A12 12 0 0 0 12 0m.157 1.103a10.91 10.91 0 0 1 9.214 5.404c-1.962.152-3.156 1.698-5.132 3.553-2.81 2.637-4.562.582-5.288-.898-.447-1.004-.847-2.117-1.544-2.769A.4.4 0 0 1 9.3 6.02l.08-.37a.083.083 0 0 0-.074-.1c-.33-.022-.601.093-.84.368a2.5 2.5 0 0 0-.375-.064c-.863-.093-1.036.345-1.873.345H5.81c-.758 0-1.391.361-1.7.892-.248.424-.257.884.15.93-.126.445.292.62 1.224.192 0 0 .733.421 1.749.421.549 0 .712.087.914.967.486 2.138 2.404 5.655 6.282 5.655l.118.166c.659.934.86 2.113.48 3.184-.307.867-.697 1.531-.697 1.531q.01.178.01.349c0 .81-.175 1.553-.387 2.23a10.91 10.91 0 0 1-11.989-6.342A10.91 10.91 0 0 1 7.608 2.01a10.9 10.9 0 0 1 4.55-.907M7.524 6.47c.288 0 .575.231.477.272a.4.4 0 0 1-.1.02.38.38 0 0 1-.375.327.384.384 0 0 1-.378-.326.4.4 0 0 1-.101-.02c-.098-.042.19-.273.477-.273m10.193 10.49q.05 0 .101.007.326.054.694.096.135.01.269.026a13.4 13.4 0 0 0 2.846-.007 10.9 10.9 0 0 1-2.007 2.705c-.11-.23-.547-1.19-.573-2.196q-.156-.01-.313-.026-.13-.014-.256-.022a18 18 0 0 1-.735-.102h-.003c-.032 0-.06.01-.074.035l-.003.012q-.081.265-.182.544c.428 1.084.652 2.078.652 2.078.14.22.258.432.363.64a11 11 0 0 1-2.168 1.264 11 11 0 0 1-1.205.426 13.3 13.3 0 0 1 1.055-2.531s.678-1.445 1.027-2.564v-.004a.55.55 0 0 1 .512-.38"
    />
  </symbol>
  <symbol id="services" viewBox="0 0 32 32">
    <path
      d="M30.47 6.1H1.52V1.53H0v28.95h1.52V7.62h28.95v22.86H32V1.53h-1.53zM30.47 30.48H1.52V32h28.95z"
    />
    <path
      d="M24.38 22.86h-1.52v1.52h1.52zM22.86 18.29h1.52v1.52h-1.52v1.53h3.04v-4.58h-3.04zM24.38 13.72h-1.52v1.52h1.52zM22.86 24.38h-1.53v1.53h1.53zM22.86 21.34h-1.53v1.52h1.53zM22.86 15.24h-1.53v1.52h1.53zM22.86 12.19h-1.53v1.53h1.53zM21.33 25.91h-1.52v1.52h1.52zM21.33 10.67h-1.52v1.52h1.52zM19.81 24.38h-1.53v1.53h1.53zM19.81 16.76h-1.53v4.58h1.53zM19.81 12.19h-1.53v1.53h1.53zM16.76 27.43h-1.52v-1.52h-1.53v3.04h4.57v-3.04h-1.52z"
    />
    <path
      d="M18.28 21.34h-4.57v1.52h4.57zM18.28 15.24h-4.57v1.52h4.57zM15.24 10.67h1.52v1.52h1.52V9.15h-4.57v3.04h1.53zM13.71 24.38h-1.52v1.53h1.52zM13.71 16.76h-1.52v4.58h1.52zM13.71 12.19h-1.52v1.53h1.52zM12.19 25.91h-1.52v1.52h1.52zM12.19 10.67h-1.52v1.52h1.52zM10.67 24.38H9.14v1.53h1.53zM10.67 21.34H9.14v1.52h1.53zM10.67 15.24H9.14v1.52h1.53zM10.67 12.19H9.14v1.53h1.53zM10.67 3.05H9.14v1.52h1.53zM9.14 22.86H7.62v1.52h1.52zM7.62 19.81v-1.52h1.52v-1.53H6.09v4.58h3.05v-1.53zM9.14 13.72H7.62v1.52h1.52zM7.62 3.05H6.09v1.52h1.53zM4.57 3.05H3.05v1.52h1.52zM30.47 0H1.52v1.53h28.95z"
    />
  </symbol>
  <symbol id="php" viewBox="0 0 40 40">
    <path
      d="M20 9.167C8.785 9.167 0 13.925 0 20s8.785 10.833 20 10.833S40 26.075 40 20 31.215 9.167 20 9.167M17.923 12.5h2.184l-.694 3.333h1.95c1.237 0 2.067.174 2.54.605.462.427.602 1.127.417 2.08l-.867 3.982h-2.22l.799-3.682q.143-.761-.112-1.041c-.168-.185-.54-.277-1.097-.277h-1.748l-1.055 5h-2.187zm-9.59 3.333h4.444c2.118 0 3.401 1.42 2.9 3.539-.584 2.461-2.144 3.128-5.017 3.128H9.287L8.852 25H6.643zm17.5 0h4.444c2.118 0 3.401 1.42 2.9 3.539-.584 2.461-2.145 3.128-5.017 3.128h-1.373l-.435 2.5h-2.209zM10.225 17.5l-.628 3.333h1.425c1.233 0 2.38-.14 2.571-1.978.072-.713-.225-1.355-1.65-1.355zm17.5 0-.628 3.333h1.425c1.233 0 2.38-.14 2.571-1.978.072-.713-.223-1.355-1.65-1.355z"
    />
  </symbol>
  <symbol id="python" viewBox="0 0 30 30">
    <mask
      id="b"
      width="30"
      height="30"
      x="0"
      y="0"
      maskUnits="userSpaceOnUse"
      style="mask-type: luminance"
    >
      <path fill="#fff" d="M0 0h30v30H0z" />
    </mask>
    <g mask="url(#b)">
      <path
        d="M14.893 0C7.275 0 7.75 3.32 7.75 3.32l.009 3.44h7.267v1.033H4.875S0 7.236 0 14.96s4.254 7.45 4.254 7.45H6.79v-3.584s-.136-4.275 4.188-4.275h7.207s4.05.066 4.05-3.934V4.002S22.851 0 14.892 0m-4.008 2.313a1.31 1.31 0 0 1 1.308 1.314 1.31 1.31 0 0 1-1.308 1.314 1.31 1.31 0 0 1-1.307-1.313 1.31 1.31 0 0 1 1.307-1.315"
      />
      <path
        d="M15.109 30c7.615 0 7.14-3.32 7.14-3.32l-.009-3.44h-7.267v-1.033h10.153s4.875.557 4.875-7.168-4.255-7.45-4.255-7.45H23.21v3.583s.136 4.275-4.188 4.275h-7.206s-4.05-.065-4.05 3.935v6.615S7.15 30 15.11 30m4.007-2.313a1.31 1.31 0 0 1-1.307-1.315 1.31 1.31 0 0 1 1.307-1.313 1.31 1.31 0 0 1 1.308 1.313 1.31 1.31 0 0 1-1.308 1.315"
      />
    </g>
  </symbol>
  <symbol id="ruby" viewBox="0 0 32 32">
    <path
      fill-rule="evenodd"
      d="m15.924 2-.077.008h-.152l-.12.06a1.3 1.3 0 0 0-.31.154l-5.108 2.555-5.38 5.38-2.543 5.083a1.3 1.3 0 0 0-.171.345l-.055.11v.139a1.3 1.3 0 0 0 0 .29v10.438l.241.333c.21.29.445.58.72.854 1.325 1.325 3.069 2.001 4.992 2.17q.198.064.405.063h20.152a1.3 1.3 0 0 0 .422 0h1.043v-1.048a1.3 1.3 0 0 0 0-.417V8.366a1.3 1.3 0 0 0-.062-.405c-.17-1.923-.846-3.666-2.17-4.992h-.003v-.002a7 7 0 0 0-.85-.715l-.335-.244H16.11a1 1 0 0 0-.186-.007m4.661 2.55h5.109c.086.073.183.142.26.219.931.932 1.434 2.266 1.48 3.891zm-4.644.18 2.3 1.377-.892 5.464-2.252 2.253-3.525 3.524-5.463.891-1.379-2.3 2.139-4.279 4.793-4.793zm4.647 2.786 4.311 2.587-4.833.604zm6.258 4.907c-.742 2.389-2.193 4.99-4.284 7.416l-2.305-6.594zm-8.839 2.086 1.878 5.374-5.375-1.877 2.385-2.385zm9.433 2.836v8.295l-3.515-3.514a26.7 26.7 0 0 0 3.515-4.78m-16.732 2.718-.603 4.833-2.588-4.31zm2.538.192 6.591 2.304c-2.424 2.09-5.024 3.542-7.413 4.284zm-8.695.328 4.11 6.849c-1.627-.046-2.962-.55-3.894-1.483-.075-.075-.143-.172-.216-.258zm17.576 3.34 3.515 3.514h-8.295a26.7 26.7 0 0 0 4.78-3.514"
      clip-rule="evenodd"
    />
  </symbol>
  <symbol id="rust" viewBox="0 0 32 32">
    <path
      d="m31.781 15.608-1.343-.832q-.017-.195-.038-.391l1.154-1.077a.462.462 0 0 0-.153-.771l-1.476-.552a17 17 0 0 0-.115-.381l.92-1.279a.46.46 0 0 0-.3-.727l-1.557-.253q-.09-.176-.187-.35l.654-1.435a.46.46 0 0 0-.036-.448.46.46 0 0 0-.4-.206l-1.58.055a13 13 0 0 0-.25-.302l.363-1.539a.462.462 0 0 0-.556-.556l-1.538.362q-.15-.126-.303-.249l.055-1.58a.46.46 0 0 0-.654-.436l-1.435.654a17 17 0 0 0-.35-.188l-.253-1.556a.462.462 0 0 0-.726-.3l-1.28.92a14 14 0 0 0-.38-.116L19.465.6a.46.46 0 0 0-.771-.153L17.617 1.6q-.195-.022-.391-.038L16.394.219a.462.462 0 0 0-.786 0l-.832 1.344q-.195.015-.391.038L13.308.446a.462.462 0 0 0-.771.153l-.552 1.476q-.192.056-.38.116l-1.28-.92a.46.46 0 0 0-.727.3l-.254 1.556q-.175.092-.35.188L7.56 2.661a.46.46 0 0 0-.654.437l.055 1.579q-.153.123-.303.25L5.12 4.563a.464.464 0 0 0-.557.556l.363 1.539q-.127.15-.25.302l-1.579-.055a.465.465 0 0 0-.477.425.46.46 0 0 0 .04.23l.654 1.435q-.095.172-.187.35l-1.556.252a.462.462 0 0 0-.301.727l.92 1.279q-.06.19-.115.38l-1.476.553a.463.463 0 0 0-.153.771L1.6 14.385q-.022.195-.039.391l-1.343.832a.462.462 0 0 0 0 .786l1.343.832q.017.195.038.39L.447 18.695a.462.462 0 0 0 .153.771l1.476.552q.056.192.116.38l-.921 1.28a.462.462 0 0 0 .301.726l1.556.253q.091.177.188.35l-.655 1.435a.46.46 0 0 0 .437.654l1.579-.055q.123.154.25.303l-.363 1.539a.46.46 0 0 0 .557.555l1.538-.362q.15.128.303.249l-.055 1.58a.462.462 0 0 0 .654.436l1.435-.654q.173.096.35.188l.253 1.555a.46.46 0 0 0 .727.302l1.279-.922q.19.061.38.116l.552 1.476a.46.46 0 0 0 .771.153l1.077-1.155q.195.022.392.04l.832 1.343a.464.464 0 0 0 .786 0l.831-1.344q.197-.017.392-.039l1.077 1.155a.46.46 0 0 0 .77-.153l.553-1.476q.19-.055.38-.116l1.28.922a.463.463 0 0 0 .726-.302l.254-1.555q.175-.092.349-.188l1.435.654a.462.462 0 0 0 .654-.436l-.055-1.58q.153-.123.303-.249l1.538.362a.46.46 0 0 0 .55-.323.46.46 0 0 0 .006-.232l-.362-1.539q.126-.15.249-.303l1.58.055a.46.46 0 0 0 .476-.425.46.46 0 0 0-.04-.229l-.654-1.434q.096-.174.187-.35l1.556-.254a.46.46 0 0 0 .385-.51.46.46 0 0 0-.084-.216l-.92-1.279q.06-.189.115-.381l1.476-.552a.46.46 0 0 0 .278-.575.46.46 0 0 0-.125-.196L30.4 17.617q.02-.195.038-.391l1.343-.832a.46.46 0 0 0 0-.786M22.79 26.752a.952.952 0 0 1 .399-1.861.952.952 0 0 1-.4 1.861m-.457-3.087a.867.867 0 0 0-1.028.666l-.477 2.226A11.65 11.65 0 0 1 16 27.597c-1.76 0-3.43-.39-4.929-1.087l-.476-2.225a.866.866 0 0 0-1.029-.666l-1.965.422a12 12 0 0 1-1.016-1.198h9.561c.108 0 .18-.02.18-.118v-3.382c0-.099-.072-.118-.18-.118H13.35V17.08h3.024c.276 0 1.477.079 1.86 1.613.12.472.384 2.006.565 2.497.18.551.911 1.652 1.691 1.652h4.765a1 1 0 0 0 .172-.017q-.496.675-1.083 1.271zM9.11 26.705a.952.952 0 1 1 .317-1.73.95.95 0 0 1-.317 1.73M5.483 11.999a.95.95 0 1 1-1.755.043.952.952 0 0 1 1.541-.346 1 1 0 0 1 .213.303m-1.115 2.643 2.047-.91a.867.867 0 0 0 .44-1.145l-.421-.953h1.658v7.474H4.747a11.7 11.7 0 0 1-.38-4.466m8.982-.726v-2.203H17.3c.204 0 1.44.236 1.44 1.16 0 .768-.948 1.043-1.728 1.043zm14.35 1.983q0 .438-.033.868h-1.2c-.12 0-.168.079-.168.197v.55c0 1.298-.732 1.58-1.373 1.652-.61.07-1.288-.255-1.371-.629-.36-2.026-.96-2.458-1.908-3.206 1.176-.747 2.4-1.848 2.4-3.323 0-1.593-1.092-2.596-1.836-3.088-1.044-.688-2.2-.826-2.512-.826H7.285a11.7 11.7 0 0 1 6.545-3.694l1.463 1.535a.866.866 0 0 0 1.225.028l1.637-1.566a11.71 11.71 0 0 1 8.01 5.704l-1.121 2.532a.87.87 0 0 0 .44 1.145l2.159.958q.056.574.056 1.163M15.294 3.093a.95.95 0 1 1 1.312 1.377A.949.949 0 0 1 15 3.76a.95.95 0 0 1 .294-.667m11.123 8.952a.95.95 0 0 1 1.253-.485.952.952 0 0 1-.77 1.74.953.953 0 0 1-.483-1.256"
    />
  </symbol>
  <symbol id="scala" viewBox="0 0 32 32">
    <path
      d="M6.12 32c6.047 0 18.411-2.021 19.76-4v-7.641c-1.276 1.88-13.714 3.885-19.76 3.885zm0-10.182c6.047 0 18.411-2.021 19.76-4v-7.635c-1.276 1.875-13.714 3.88-19.76 3.88zm0-10.177c6.047 0 18.411-2.021 19.76-4V0C24.604 1.875 12.166 3.88 6.12 3.88z"
    />
  </symbol>
  <symbol id="swift-objective-c-ios" viewBox="0 0 40 40">
    <path
      d="M36 12.878v-.93c0-.722-.051-1.393-.206-2.115-.052-.722-.36-1.393-.67-1.961-.668-1.24-1.646-2.323-2.983-2.994-.669-.31-1.285-.568-2.007-.67-.72-.052-1.388-.208-2.108-.208H11.512c-.566 0-1.03.051-1.595.156a5.8 5.8 0 0 0-1.544.412c-.154.052-.36.154-.514.207q-.674.45-1.286.98c-.155.052-.258.208-.464.362a7.7 7.7 0 0 0-1.234 1.65c-.309.673-.566 1.29-.669 2.015A29 29 0 0 0 4 11.897V28c0 .722.051 1.393.206 2.116.052.722.36 1.394.67 2.012.668 1.29 1.646 2.323 2.983 2.994.669.31 1.285.568 2.007.67.72.054 1.388.208 2.108.208h16.053c.72 0 1.387-.051 2.107-.207.72-.051 1.39-.361 2.007-.671 1.235-.671 2.315-1.652 2.984-2.994.309-.67.566-1.288.669-2.012.104-.723.206-1.394.206-2.116zm-4.99 17.186c-1.44-2.735-4.064-2.115-5.402-1.393a1.1 1.1 0 0 1-.36.207h-.104c-2.726 1.547-6.584 1.599-10.34-.051a17.14 17.14 0 0 1-7.46-6.453 12 12 0 0 0 2.83 1.653c4.064 1.909 8.026 1.753 10.906 0-4.064-3.098-7.357-7.175-10.032-10.427a16 16 0 0 1-1.389-1.806c3.088 2.838 8.026 6.452 9.776 7.381-3.757-3.923-6.998-8.876-6.896-8.62 5.866 5.936 11.267 9.342 11.267 9.342.207.052.362.206.516.31.05-.31.206-.568.308-.878.927-3.406-.05-7.38-2.468-10.581 5.504 3.252 8.694 9.498 7.356 14.814-.052.051-.052.205-.052.361 2.624 3.148 1.904 6.76 1.544 6.141"
    />
  </symbol>
  <symbol id="c-c" viewBox="0 0 24 24">
    <path
      d="M22.394 6c-.167-.29-.398-.543-.652-.69L12.926.22c-.509-.294-1.34-.294-1.848 0L2.26 5.31c-.508.293-.923 1.013-.923 1.6v10.18c0 .294.104.62.271.91s.398.543.652.69l8.816 5.09c.508.293 1.34.293 1.848 0l8.816-5.09c.254-.147.485-.4.652-.69s.27-.616.27-.91V6.91c.003-.294-.1-.62-.268-.91M12 19.11c-3.92 0-7.109-3.19-7.109-7.11s3.19-7.11 7.11-7.11a7.13 7.13 0 0 1 6.156 3.553l-3.076 1.78a3.57 3.57 0 0 0-3.08-1.78A3.56 3.56 0 0 0 8.444 12 3.56 3.56 0 0 0 12 15.555a3.57 3.57 0 0 0 3.08-1.778l3.078 1.78A7.14 7.14 0 0 1 12 19.11m7.11-6.715h-.79v.79h-.79v-.79h-.79v-.79h.79v-.79h.79v.79h.79zm2.962 0h-.79v.79h-.79v-.79h-.79v-.79h.79v-.79h.79v.79h.79z"
    />
  </symbol>
  <symbol id="r" viewBox="0 0 24 24">
    <path
      d="M12 2.746c-6.627 0-12 3.599-12 8.037 0 3.897 4.144 7.144 9.64 7.88V16.26c-2.924-.915-4.925-2.755-4.925-4.877 0-3.035 4.084-5.494 9.12-5.494 5.038 0 8.757 1.683 8.757 5.494 0 1.976-.999 3.379-2.662 4.272.09.066.174.128.258.216.169.149.25.363.372.544 2.128-1.45 3.44-3.437 3.44-5.631 0-4.44-5.373-8.038-12-8.038zm-2.111 4.99v13.516l4.093-.002-.002-5.291h1.1c.225 0 .321.066.549.25.272.22.715.982.715.982l2.164 4.063 4.627-.002-2.864-4.826s-.086-.193-.265-.383a2.22 2.22 0 00-.582-.416c-.422-.214-1.149-.434-1.149-.434s3.578-.264 3.578-3.826c0-3.562-3.744-3.63-3.744-3.63zm4.127 2.93l2.478.002s1.149-.062 1.149 1.127c0 1.165-1.149 1.17-1.149 1.17h-2.478zm1.754 6.119c-.494.049-1.012.079-1.54.088v1.807a16.622 16.622 0 002.37-.473l-.471-.891s-.108-.183-.248-.394c-.039-.054-.08-.098-.111-.137z"
    />
  </symbol>
  <symbol id="ocaml-reason" viewBox="0 0 24 24">
    <path
      d="M12.178 21.637c-.085-.17-.187-.524-.255-.676-.067-.135-.27-.506-.37-.625-.22-.253-.27-.27-.338-.608-.12-.574-.405-1.588-.76-2.296-.187-.372-.49-.677-.761-.947-.236-.236-.777-.624-.878-.607-.895.169-1.166 1.046-1.587 1.739-.237.388-.473.71-.66 1.115-.167.371-.151.793-.439 1.115a2.95 2.95 0 0 0-.624 1.097c-.034.084-.101.929-.186 1.131l1.318-.084c1.233.085.877.557 2.787.456l3.022-.1a5.4 5.4 0 0 0-.27-.71zM20.96 1.539H3.023A3.02 3.02 0 0 0 0 4.56v6.587c.44-.152 1.047-1.08 1.25-1.3.337-.389.405-.895.574-1.2.389-.709.456-1.215 1.334-1.215.406 0 .575.1.845.473.186.253.523.743.675 1.064.186.371.474.86.609.962.1.068.185.136.27.17.135.05.253-.051.354-.12.118-.1.17-.286.287-.556.17-.39.339-.827.44-.997.169-.27.236-.608.422-.76.27-.236.641-.253.743-.27.557-.118.81.27 1.08.507.186.168.423.49.609.91.135.339.304.661.388.846.068.185.237.49.338.86.101.322.337.575.44.744 0 0 .152.406 1.03.778a8 8 0 0 0 .81.286c.39.135.76.12 1.233.068.338 0 .524-.49.676-.878.084-.237.185-.895.236-1.081s-.085-.32.034-.49c.135-.186.22-.203.287-.439.17-.523 1.114-.54 1.655-.54.456 0 .389.44 1.149.287.439-.085.86.05 1.318.185.388.102.76.22.98.473.134.17.489.997.134 1.031.033.033.067.118.118.151-.085.322-.422.085-.625.051-.253-.05-.44 0-.693.118-.439.187-1.063.17-1.452.49-.32.271-.32.861-.473 1.2 0 0-.422 1.063-1.317 1.722-.237.17-.692.574-1.672.726-.44.068-.86.068-1.318.05-.22-.016-.438-.016-.658-.016-.136 0-.575-.017-.558.034l-.05.119a.6.6 0 0 0 .033.169c.017.1.017.185.034.27 0 .185-.017.388 0 .574.017.388.17.743.186 1.148.017.44.236.913.456 1.267.085.135.203.152.254.32.067.186 0 .406.033.609.118.794.355 1.638.71 2.364v.017c.439-.067.895-.236 1.47-.32 1.063-.153 2.532-.085 3.478-.17 2.399-.22 3.7.98 5.844.49V4.562a3.045 3.045 0 0 0-3.04-3.023m-8.951 14.187q0-.051 0 0m-6.47 2.769c.17-.372.271-.778.406-1.15.135-.354.337-.86.693-1.046-.05-.05-.744-.068-.929-.085a7 7 0 0 1-.608-.084 23 23 0 0 1-1.15-.236c-.22-.051-.979-.322-1.13-.39-.39-.168-.642-.658-.93-.607-.185.034-.37.101-.49.287-.1.152-.134.423-.202.608-.084.203-.22.405-.32.608-.238.354-.626.676-.795 1.03-.033.085-.05.169-.084.254v4.07c.202.034.405.068.624.135 1.69.456 2.095.49 3.75.304l.152-.017c.118-.27.22-1.165.304-1.435.067-.22.153-.39.187-.591.033-.203 0-.406-.017-.59-.034-.491.354-.661.54-1.065z"
    />
  </symbol>
</svg>
