<svg
  xmlns="http://www.w3.org/2000/svg"
  width="138"
  height="138"
  fill="none"
  viewBox="0 0 138 138"
>
  <path
    fill="#ff99df"
    d="M134.289 16.378h-6.577v104.801h6.577zM127.713 121.179h-6.534v6.534h6.534zM127.713 9.801h-6.534v6.577h6.534z"
  />
  <path
    fill="#ff99df"
    d="M121.179 127.713H16.378v6.577h104.801zM31.552 77.376h6.534v6.534h6.534v6.534h6.577v6.577h13.067v-6.577h6.577V83.91h6.534v-6.534h6.577V70.8h6.534v-6.534h6.534v-6.534h6.577v-6.577H97.02V44.62h-6.534v6.534h-6.534v6.577h-6.577v6.534h-6.534V70.8h-6.577v6.577H51.197V70.8H44.62v-6.534h-6.534V70.8h-6.534zM121.179 3.267H16.378v6.534h104.801zM16.378 121.179H9.844v6.534h6.534zM16.378 9.801H9.844v6.577h6.534zM9.844 16.378H3.267v104.801h6.577z"
  />
</svg>
