<svg
  xmlns="http://www.w3.org/2000/svg"
  width="138"
  height="138"
  fill="none"
  viewBox="0 0 138 138"
>
  <g fill="#83bd02" clip-path="url(#a)">
    <path
      d="M137.557 98.267h-13.111v13.11h13.111zM124.446 111.378h-6.534v6.534h6.534zM124.446 72.045V52.401h6.577V32.756h-19.645V52.4h6.534v19.644zM117.912 117.912h-6.534v6.577h6.534zM117.912 72.045h-6.534v6.577h6.534zM111.378 124.489h-6.577v13.068h6.577zM111.378 78.623h-6.577v6.533h6.577zM104.801 85.156h-6.534v6.577h6.534zM98.267 91.733H91.69v45.824h6.577zM98.267 72.045v-52.4h6.534V0H85.156v19.645h6.534v52.4zM91.69 6.577h6.577v6.534H91.69zM91.69 72.045h-6.534v6.577h6.534zM85.157 78.623h-6.534v58.934h6.533zM58.934 65.512h6.577v72.045h6.534V65.512h6.577V45.867H58.934zM58.935 78.623H52.4v58.934h6.534zM52.4 72.045h-6.533v6.577H52.4zM45.867 104.801H39.29v32.755h6.577z"
    />
    <path
      d="M45.867 39.333H52.4V19.645H32.756v19.688h6.534v32.713h6.577zM39.29 98.267h-6.534v6.534h6.534zM32.756 124.489h-6.534v13.068h6.534zM32.756 91.733h-6.534v6.534h6.534zM32.756 85.157V65.512H13.11v19.644h6.534v6.577h6.577v-6.577zm-13.111-6.534v-6.577h6.577v6.577zM26.222 117.912h-6.577v6.577h6.577zM19.645 111.378H13.11v6.534h6.534zM13.11 98.267H0v13.11h13.11z"
    />
  </g>
  <defs>
    <clipPath id="a"><path fill="#fff" d="M0 0h137.557v137.557H0z" /></clipPath>
  </defs>
</svg>
