<svg
  xmlns="http://www.w3.org/2000/svg"
  width="138"
  height="138"
  fill="none"
  viewBox="0 0 138 138"
>
  <g fill="#83bd02" clip-path="url(#a)">
    <path
      d="M45.867 78.58v32.755h19.645v26.221h6.533v-26.221h39.333v26.221h6.534v-26.221h19.645V78.579zm26.178 19.687h-6.534v6.534h-13.11v-6.534h6.577V91.69h6.533v-6.534h13.111v6.534h-6.577zm26.222 0H91.69v6.534H78.622v-6.534h6.534V91.69h6.534v-6.534h13.111v6.534h-6.534zm32.756-6.577h-6.577v6.577h-6.534v6.534h-13.111v-6.534h6.577V91.69h6.534v-6.534h13.111zM98.267 52.4H91.69v6.535h6.577zM98.267 39.29H91.69v6.577h6.577zM91.69 45.867h-6.534V52.4h6.534zM85.157 52.4h-6.534v6.535h6.533zM85.157 39.29h-6.534v6.577h6.533zM78.622 65.512h-6.577v6.534h6.577zM72.046 58.934H52.4v6.577h19.645zM52.4 65.512h-6.533v6.534H52.4zM45.867 52.4H39.29v6.535h6.577zM45.867 39.29H39.29v6.577h6.577zM45.867 13.11H39.29v6.535h6.577zM13.11 117.912v-13.111H6.535v13.111H0v19.644h45.867v-19.644H39.29v-13.111h-6.534v13.111zm26.18 6.534v6.577H6.534v-6.577zM39.29 45.867h-6.534V52.4h6.534zM32.756 52.4h-6.534v6.535h6.534zM32.756 39.29h-6.534v6.577h6.534zM32.756 13.11h-6.534v6.535h6.534zM19.645 98.267V91.69H13.11V104.8h19.645V91.69h-6.534v6.577z"
    />
    <path
      d="M26.222 85.156h-6.577v6.534h6.577zM19.645 13.11H13.11v6.535h6.534zM117.912 0H6.534v6.534h111.378z"
    />
    <path
      d="M124.446 52.4V6.535h-6.534V26.18H6.534V6.534H0v91.733h6.534V32.756h111.378V52.4z"
    />
  </g>
  <defs>
    <clipPath id="a"><path fill="#fff" d="M0 0h137.557v137.557H0z" /></clipPath>
  </defs>
</svg>
