<svg
  xmlns="http://www.w3.org/2000/svg"
  width="138"
  height="138"
  fill="none"
  viewBox="0 0 138 138"
>
  <g fill="#ff99df" clip-path="url(#a)">
    <path
      d="M108.089 52.4v13.068H29.467V52.4h-6.534v32.756h6.534v-13.11h78.622v13.11h6.534V52.4z"
    />
    <path
      d="M29.467 85.156v6.534h6.534v6.534h13.111V91.69h39.29v6.534h13.111V91.69h6.576v-6.534zM42.578 124.446v-6.577h-6.577v6.577h-6.534v13.111h6.534v-6.577h65.512v6.577h6.576v-13.111h-6.576v-6.577h-6.534v6.577z"
    />
    <path
      d="M94.978 111.335h-13.11v6.534h13.11zM88.401 98.224h-6.534v6.577h6.534zM88.401 32.713h-6.534v6.577h6.534zM94.978 19.645h-13.11v6.534h13.11zM81.868 104.801H55.689v6.534h26.179zM81.868 26.179H55.689v6.534h26.179zM55.689 111.335h-13.11v6.534h13.11zM55.689 98.224h-6.577v6.577h6.577zM55.689 32.713h-6.577v6.577h6.577zM55.689 19.645h-13.11v6.534h13.11zM94.979 13.068v6.577h6.534v-6.577h6.576V0h-6.576v6.534H36.001V0h-6.534v13.068h6.534v6.577h6.577v-6.577zM108.089 52.4v-6.576h-6.576V39.29H88.402v6.534h-39.29V39.29h-13.11v6.534h-6.535V52.4z"
    />
  </g>
  <defs>
    <clipPath id="a"><path fill="#fff" d="M0 0h137.557v137.557H0z" /></clipPath>
  </defs>
</svg>
