<svg
  xmlns="http://www.w3.org/2000/svg"
  width="138"
  height="138"
  fill="none"
  viewBox="0 0 138 138"
>
  <g fill="#83bd02" clip-path="url(#a)">
    <path
      d="M98.224 32.756v13.11H91.69v19.645h6.534v6.534h6.577v6.577H85.156v6.534h-6.577v6.534h19.645v13.111H91.69v13.111h6.534v6.534h13.111v-6.534h6.577v-6.577h6.534V98.267h6.534v-13.11h6.576V52.4h-6.576V39.29h-6.534V26.222h-6.534v6.534zM117.912 19.645h-6.577v6.577h6.577zM111.335 13.11h-13.11v6.535h13.11z"
    />
    <path
      d="M98.224 124.446H85.156v6.577h13.068zM98.224 6.534H85.156v6.577h13.068z"
    />
    <path
      d="M72.046 124.446h-6.534v-6.534H45.824v6.534H39.29v6.576H52.4v6.534h32.757v-6.534H72.046zM85.157 0H52.4v6.534h32.755zM45.823 72.045H52.4v6.577h6.534V58.935h-13.11zM39.29 117.912H26.179v6.534h13.11zM26.179 111.335h-6.534v6.577h6.534z"
    />
    <path
      d="M13.11 98.267v13.068h6.535v-6.534h6.534v-6.534h6.577V78.622h-6.577v-6.576h-6.534v-6.534H13.11v-6.577h6.534V52.4H39.29v-6.534h6.534V39.29H52.4v6.577h6.534V39.29h6.577V26.222h-6.577v-6.577h-13.11v-6.534H52.4V6.534H39.29v6.577H26.179v6.534h-6.534v6.577H13.11V39.29H6.534V52.4H0v32.756h6.534v13.111z"
    />
  </g>
  <defs>
    <clipPath id="a"><path fill="#fff" d="M0 0h137.557v137.557H0z" /></clipPath>
  </defs>
</svg>
