<svg
  xmlns="http://www.w3.org/2000/svg"
  width="138"
  height="138"
  fill="none"
  viewBox="0 0 138 138"
>
  <g fill="#ff99df" clip-path="url(#a)">
    <path
      d="M137.556 101.512h-6.577v19.645h6.577zM130.98 121.157h-19.645v6.577h19.645z"
    />
    <path
      d="M130.98 101.512v-6.534h-6.534V75.334h-6.577v19.644h-6.534v6.534zM117.869 68.757h-6.534v6.577h6.534z"
    />
    <path
      d="M111.335 101.512h-6.534v19.645h6.534zM72.045 62.223V42.578h6.534v-6.577H58.934v6.577h6.534v19.645h-39.29v6.534h39.29v26.221h-6.534v6.534H78.58v-6.534h-6.534V68.758h39.29v-6.534z"
    />
    <path
      d="M85.113 101.512h-6.534v19.645h6.534zM85.113 16.356h-6.534v19.645h6.534zM78.58 121.157H58.934v6.577h19.644zM78.58 9.822H58.934v6.534h19.644zM58.934 101.512H52.4v19.645h6.534zM58.934 16.356H52.4v19.645h6.534zM32.713 101.512h-6.534v19.645h6.534zM26.179 68.757h-6.534v6.577h6.534zM26.179 121.157H6.534v6.577H26.18zM13.068 94.979H6.534v6.533H26.18v-6.534h-6.534V75.334h-6.577zM6.534 101.512H0v19.645h6.534z"
    />
  </g>
  <defs>
    <clipPath id="a"><path fill="#fff" d="M0 0h137.557v137.557H0z" /></clipPath>
  </defs>
</svg>
