<svg
  xmlns="http://www.w3.org/2000/svg"
  width="138"
  height="138"
  fill="none"
  viewBox="0 0 138 138"
>
  <g fill="#83bd02" clip-path="url(#a)">
    <path
      d="M127.734 32.756H121.2v26.179h6.534zM121.2 58.935h-6.533v6.576h6.533zM121.2 26.222h-6.533v6.534h6.533zM108.089 85.156H121.2v6.534h-13.111v19.688H121.2v6.534h-13.111v13.111h6.577v-6.577h13.068v-19.645h-13.068v-6.534h13.068V78.622h-13.068v-13.11h-6.577zM108.089 131.022H94.978v6.534h13.111zM88.445 19.645v6.577h13.111v6.534H88.445V52.4h26.222V32.756h-6.577v-6.534h6.577v-6.577h-6.577V13.11h-6.534v6.534zm13.111 26.222H95V39.29h6.577z"
    />
    <path
      d="M101.555 6.534h-6.577v6.577h6.577zM94.979 65.512h-6.534v-6.577H81.91v13.11h6.534v58.978h6.534zM88.445 26.222H81.91v6.534h6.534z"
    />
    <path
      d="M68.8 39.29V52.4h6.534v6.535h6.577v-26.18h-6.577v6.535zM81.91 72.045H62.223v6.577H81.91zM75.334 26.222H62.223v6.534h13.11zM94.978 0H62.223v6.534h32.755zM68.8 98.267h-6.577v6.534H68.8zM62.223 104.801h-6.534v6.577h6.534zM62.223 91.69h-6.534v6.577h6.534zM62.223 78.622h-6.534v6.534h6.534zM62.223 32.756h-6.534v6.534h6.534zM62.223 6.534h-6.534v6.577h6.534zM55.689 111.378h-6.534v6.534h6.534zM55.689 85.156h-6.534v6.534h6.534zM55.689 39.29h-6.534V65.51h6.534zM55.689 13.11h-6.534v19.646h6.534zM49.155 104.801h-6.577v6.577h6.577zM49.155 65.511h-6.577v6.534h6.577zM42.578 98.267h-6.534v6.534h6.534zM42.578 72.045h-6.534v6.577h6.534zM36.044 104.801H29.51v6.577h6.534zM36.044 78.622H29.51v6.534h6.534zM29.51 111.378h-6.577v6.534h6.577zM29.51 85.156h-6.577v6.534h6.577zM22.933 104.801h-6.534v6.577h6.534zM22.933 91.69h-6.534v6.577h6.534zM16.4 98.267H9.821v6.534H16.4z"
    />
  </g>
  <defs>
    <clipPath id="a"><path fill="#fff" d="M0 0h137.557v137.557H0z" /></clipPath>
  </defs>
</svg>
