<svg
  xmlns="http://www.w3.org/2000/svg"
  width="138"
  height="138"
  fill="none"
  viewBox="0 0 138 138"
>
  <g fill="#83bd02" clip-path="url(#a)">
    <path
      d="M137.557 85.156h-6.534v45.867h6.534zM131.023 131.023H6.577v6.534h124.446zM111.378 104.801h-6.577v6.577h13.111V98.267h-6.534zM117.912 117.912h-13.111v6.577h13.111zM104.801 91.733h-6.534v6.534h6.534zM104.801 45.867h-6.534V52.4h6.534zM98.267 104.801H91.69v6.577h6.577zM98.267 52.4H91.69v6.577h6.577zM98.267 39.333H91.69v6.534h6.577zM98.267 117.912H39.29v6.577h58.977zM91.69 91.733h-6.534v6.534h6.534zM91.69 32.756H26.222v6.577H91.69zM85.156 104.801h-6.534v6.577h6.534zM85.156 0h-6.534v13.11h6.534zM78.622 91.733h-6.577v6.534h6.577zM72.045 104.801h-6.534v6.577h6.534zM65.511 91.733h-6.534v6.534h6.534zM91.69 58.977H52.4v6.534h39.29zM58.977 104.801H52.4v6.577h6.577zM52.4 91.733h-6.533v6.534H52.4zM45.867 104.801H39.29v6.577h6.577zM39.29 91.733h-6.534v6.534h6.534zM78.622 13.11h-52.4v6.578h52.4zM32.756 104.801h-6.534v6.577h6.534zM32.756 117.912H19.645v6.577h13.11zM26.222 91.733h-6.577v6.534h6.577zM26.222 19.688h-6.577v13.068h6.577zM19.645 104.801H13.11v6.577h6.534zM131.023 85.156v-6.534H52.4v-13.11h-6.533v13.11H6.577v6.534zM6.577 85.156H0v45.867h6.577z"
    />
  </g>
  <defs>
    <clipPath id="a"><path fill="#fff" d="M0 0h137.557v137.557H0z" /></clipPath>
  </defs>
</svg>
