<svg
  xmlns="http://www.w3.org/2000/svg"
  width="138"
  height="138"
  fill="none"
  viewBox="0 0 138 138"
>
  <path
    fill="#83bd02"
    d="M134.268 36.023h-6.534v6.534h6.534zM127.734 42.557h-13.11v6.577h13.11zM127.734 29.489h-13.11v6.534h13.11zM101.513 101.534v6.534H88.445v6.577H75.334v6.534H62.223v-6.534h-13.11v-6.577H36.043v-6.534h-13.11v-6.577H3.288v6.577h6.534v6.534h13.11v6.577h13.111v6.534h13.068v6.534h13.111v6.577h13.11v-6.577h13.112v-6.534h13.068v-6.534h13.11v-6.577h13.111v-6.534h6.534v-6.577h-19.645v6.577z"
  />
  <path
    fill="#83bd02"
    d="M101.513 81.89v6.533H88.445v6.534H75.334v6.577H62.223v-6.577h-13.11v-6.534H36.043V81.89h-13.11v-6.577H3.288v6.577h6.534v6.534h13.11v6.534h13.111v6.577h13.068v6.534h13.111v6.577h13.11v-6.577h13.112v-6.534h13.068v-6.577h13.11v-6.534h13.111V81.89h6.534v-6.577h-19.645v6.577z"
  />
  <path
    fill="#83bd02"
    d="M101.513 62.244v6.534H88.445v6.534H75.334v6.577H62.223v-6.577h-13.11v-6.534H36.043v-6.534h-13.11v-6.577H3.288v6.577h6.534v6.534h13.11v6.534h13.111v6.577h13.068v6.534h13.111v6.534h13.11v-6.534h13.112V81.89h13.068v-6.577h13.11v-6.534h13.111v-6.534h6.534v-6.577h-19.645v6.577zM114.624 49.134h-13.111v6.533h13.111zM114.624 22.912h-13.111v6.577h13.111z"
  />
  <path
    fill="#83bd02"
    d="M101.513 55.668H88.445v6.576h13.068zM101.513 16.378H88.445v6.534h13.068zM88.445 62.245H75.334v6.534h13.11zM88.445 9.844H75.334v6.534h13.11zM75.334 68.778H62.223v6.534h13.11zM75.334 3.267H62.223v6.577h13.11zM62.223 62.245H49.112v6.534h13.11zM62.223 9.844H49.112v6.534h13.11zM49.112 55.668H36.044v6.576h13.068zM49.112 16.378H36.044v6.534h13.068zM36.045 49.134H22.934v6.533h13.11zM36.045 22.912H22.934v6.577h13.11zM22.934 42.557H9.823v6.577h13.11zM22.934 29.489H9.823v6.534h13.11zM9.823 36.023H3.289v6.534h6.534z"
  />
</svg>
