<svg
  xmlns="http://www.w3.org/2000/svg"
  width="138"
  height="138"
  fill="none"
  viewBox="0 0 138 138"
>
  <path
    fill="#83bd02"
    d="M131.001 65.533h-6.534v6.534h6.534zM124.467 72.067h-6.577V78.6h6.577zM124.467 58.956h-6.577v6.577h6.577zM117.89 78.6h-6.534v6.578h6.534zM117.89 52.422h-6.534v6.534h6.534zM104.823 104.823H85.135v6.533h26.221V85.178h-6.533zM65.49 72.067h-6.534v-6.534h-6.577v-6.577h-6.534v6.577h-6.534v6.534h6.534V78.6h6.534v6.577h6.577v6.534h6.534v-6.534h6.577V78.6H78.6v-6.534h6.534v-6.534h6.576v-6.577h6.534v-6.534h-6.534v-6.577h-6.576v6.577H78.6v6.534h-6.534v6.577H65.49zM104.823 32.777v19.645h6.533V26.2H85.135v6.577zM85.135 111.356H78.6v6.577h6.534zM85.135 19.667H78.6V26.2h6.534zM78.6 117.933h-6.533v6.534H78.6zM78.6 13.132h-6.533v6.534H78.6zM72.067 124.467H65.49v6.534h6.577zM72.067 6.556H65.49v6.577h6.577zM65.49 117.933h-6.534v6.534h6.534zM65.49 13.132h-6.534v6.534h6.534zM58.956 111.356h-6.577v6.577h6.577zM58.956 19.667h-6.577V26.2h6.577z"
  />
  <path
    fill="#83bd02"
    d="M32.734 104.823V85.178H26.2v26.178H52.38v-6.533zM32.734 32.777H52.38V26.2H26.2v26.222h6.534zM26.2 78.6h-6.533v6.578H26.2zM26.2 52.422h-6.533v6.534H26.2zM19.666 72.067H13.09V78.6h6.577zM19.666 58.956H13.09v6.577h6.577zM13.09 65.533H6.556v6.534h6.534z"
  />
</svg>
