<svg
  xmlns="http://www.w3.org/2000/svg"
  width="138"
  height="138"
  fill="none"
  viewBox="0 0 138 138"
>
  <g fill="#83bd02" clip-path="url(#a)">
    <path
      d="M137.557 16.378h-6.577v98.267h6.577zM130.98 114.645h-6.534v6.533h6.534zM130.98 9.844h-6.534v6.534h6.534zM13.11 121.179v6.577H26.18v6.534h6.577v-6.534H104.8v6.534h6.534v-6.534h13.111v-6.577zM117.912 22.955H19.645v85.156h98.267V95h6.534V75.355h-6.534V55.71h6.534V36.023h-6.534zm-6.577 13.068h-6.534V55.71h6.534v19.645h-6.534V95h6.534v6.534H26.179V29.489h85.156z"
    />
    <path
      d="M98.267 49.133H91.69V81.89h6.577zM91.69 81.89h-6.534v6.533h6.534zM91.69 42.6h-6.534v6.533h6.534zM85.156 55.71h-6.577v19.645h6.577zM85.157 88.423H52.4V95h32.755zM78.579 75.355H58.934v6.534H78.58zM78.579 49.133H58.934v6.577H78.58zM85.157 36.023H52.4v6.576h32.755zM58.935 55.71H52.4v19.645h6.534zM52.4 81.89h-6.577v6.533H52.4zM52.4 42.6h-6.577v6.533H52.4zM45.824 49.133H39.29V81.89h6.534zM124.446 3.267H13.111v6.577h111.335zM13.111 114.645H6.534v6.533h6.577zM13.111 9.844H6.534v6.534h6.577zM6.534 16.378H0v98.267h6.534z"
    />
  </g>
  <defs>
    <clipPath id="a"><path fill="#fff" d="M0 0h137.557v137.557H0z" /></clipPath>
  </defs>
</svg>
