<svg
  xmlns="http://www.w3.org/2000/svg"
  width="138"
  height="138"
  fill="none"
  viewBox="0 0 138 138"
>
  <g fill="#ff99df" clip-path="url(#a)">
    <path
      d="M127.734 32.756H121.2V104.8h6.534zM121.2 104.801h-6.577v6.534h6.577zM121.2 26.179h-6.577v6.577h6.577zM114.624 19.645h-26.18v6.534h26.18zM88.444 111.335V91.69h-6.576v6.577h-6.534v6.534H68.8v6.534h-6.577v6.577H68.8v6.534h6.534v6.577h6.534v6.534h6.576v-19.645h26.179v-6.577zM62.223 32.756H68.8v-6.577h6.534v-6.534H68.8V13.11h-6.577V6.534h-6.534V0h-6.534v19.645H22.933v6.534h26.222v19.688h6.534V39.29h6.534zM49.155 111.335H22.933v6.577h26.222zM22.933 104.801h-6.534v6.534h6.534zM22.933 26.179h-6.534v6.577h6.534zM16.4 32.756H9.821V104.8H16.4z"
    />
  </g>
  <defs>
    <clipPath id="a"><path fill="#fff" d="M0 0h137.557v137.557H0z" /></clipPath>
  </defs>
</svg>
