<svg
  xmlns="http://www.w3.org/2000/svg"
  width="138"
  height="138"
  fill="none"
  viewBox="0 0 138 138"
>
  <g fill="#ff99df" clip-path="url(#a)">
    <path
      d="M137.556 39.29h-6.534v19.644h6.534zM137.556 6.534h-6.534V26.18h6.534zM131.022 111.335h-6.577v-6.534h-6.534v-6.534h-6.534v13.068h-13.11v6.577h6.534v6.534h6.576v6.577h6.534v6.534h13.111v-6.534h6.534v-13.111h-6.534zM131.023 0h-19.645v6.534h19.645zM124.446 78.58h-6.534v19.687h6.534zM117.912 65.511h-6.534V78.58h6.534zM111.377 58.935h-13.11v6.576h13.11zM98.267 117.912H78.623v6.534h19.644zM98.267 52.4H78.623v6.534h19.644zM98.267 0H78.623v6.534h19.644zM78.623 111.335H65.512v6.577h13.11zM78.623 58.935H65.512v6.576h13.11zM65.512 98.267h-6.535v13.068h6.535zM65.512 65.511h-6.535V78.58h6.535zM58.978 78.58H52.4v19.687h6.577zM58.977 131.022H39.333v6.534h19.644zM58.977 0H39.333v6.534h19.644zM26.222 131.022H6.576v6.534h19.645zM26.222 0H6.576v6.534h19.645z"
    />
    <path
      d="M6.577 111.335H0v19.688h6.577zM6.577 78.58H0v19.687h6.577zM6.577 39.29H0v19.644h6.577zM6.577 6.534H0V26.18h6.577z"
    />
  </g>
  <defs>
    <clipPath id="a"><path fill="#fff" d="M0 0h137.557v137.557H0z" /></clipPath>
  </defs>
</svg>
